<svg xmlns="http://www.w3.org/2000/svg" width="1132" height="1128" viewBox="0 0 849 846"  xmlns:v="https://vecta.io/nano"><g fill="#fff"><path d="M422.21 34.73c4.4 2.93 5.4 8.56 6.08 13.43 1.52 12.94-.32 25.98.67 38.96 2.48-7.91 4.23-16.01 5.46-24.2 1.66-7.75 2.89-16.94 9.95-21.79 4.39 6.09 2.76 14.07.88 20.77-2.49 8.05-4.94 16.11-6.93 24.31 6.1-10.35 11.38-21.36 19.49-30.35 3.11-3.33 6.72-6.76 11.44-7.39 1.02 6.82-2.71 13.05-6.37 18.45-5.13 7.73-11.63 14.39-17.66 21.39-5.47 8.84-6.62 19.63-5.67 29.79 2.08 12.6 10.18 23.01 14.07 35 5.6 17.13 5.95 35.61 3.53 53.34-6.24 15.25-17.1 28.62-20.47 45.02-1.82 8.58.1 17.69 5.08 24.88-4.73 3.36-4.71 11.48-.14 14.98-2.48 5.08-7.44 8.25-10.19 13.13l-8.91 15.1-9-15.18c-2.77-4.8-7.6-8-10.15-12.97 4.53-3.57 4.63-11.66-.14-15.06 5.14-7.38 6.96-16.79 4.95-25.56-3.53-15.63-13.5-28.63-19.9-43.08-.36-.84-.59-1.7-.71-2.6-1.89-16.77-1.77-34.09 3.28-50.33 3.68-12.72 12.44-23.53 14.61-36.75.92-10.15-.23-20.92-5.7-29.72-7.65-8.81-15.97-17.28-21.46-27.69-1.98-3.71-3.2-7.91-2.55-12.14 4.94.68 8.65 4.36 11.87 7.87 7.86 8.95 13.13 19.75 19.09 29.97-1.73-6.54-3.35-13.12-5.51-19.53-2.41-8.14-5.94-17.95-.55-25.66 2.33 1.74 4.4 3.88 5.58 6.57 3.81 8.23 4.5 17.4 6.27 26.18 1.05 4.44 2.21 8.85 3.55 13.21.74-11.04-.26-22.1.14-33.15.47-6.69.96-14.19 6.02-19.2zm-47.11 56.4c.92-2.38 1.01-5.08 2.6-7.18.77 5.12-2.21 10.76 1.04 15.44l19.04 28.08c1.63 1.71-.74 3.63-1.18 5.35l-21.22-32.18c-4.4-3.02-9.96-.12-14.8-.35 2.19-2.53 6.34-1.97 8.25-4.98-1.38-2.57-3.01-5.01-4.07-7.74 2.51.89 4.38 2.81 6.5 4.34 1.14 1.06 3.33.9 3.84-.78zm92.2-7.17c2.07 2.48 1.31 6.27 3.68 8.51 3.8.38 5.7-4.07 9.25-4.89-1.06 2.73-2.69 5.16-4.06 7.73 1.85 3.06 6.14 2.36 8.17 5.02-4.81.1-10.27-2.62-14.67.26-7.39 10.54-14.17 21.53-21.31 32.25l-1.95-4.18 19.83-29.24c3.28-4.68.27-10.33 1.06-15.46zm-147.37 18.11c.78-2.51 3.89-1.5 5.49-.47 6.52 4.16 10.39 11.23 13.85 17.92 8.44 17.29 8.2 36.94 10.07 55.65 1.68-9.99 3.86-19.94 4.35-30.09.42-7.37.01-14.75-.69-22.09-.3-1.86.33-3.65 1.8-4.83 5.17 2.43 7.12 8.25 8.53 13.36 2.41 9.36 2.3 19.11 3.42 28.66.56 5.38 1.93 10.62 2.93 15.92 3.04-16.7 5.33-33.81 3.05-50.76 7.19 4.34 12.99 10.63 20.35 14.73-10.32 19.91-11.51 43.11-9.07 65.02-1.68 1.33-3.38 2.77-4.21 4.81-3.31 7.3-3.27 15.48-4.77 23.22-2.29 9.24-7.94 17.65-15.72 23.15-6.42 4.4-14.91 6.82-22.41 3.87-7.88-3.2-12.44-11.18-15.04-18.86-4.66-15.19-1.13-31.19 2.2-46.26 2.75-11.15 5.38-22.46 5.12-34.02-.48-13.76-.73-27.85-5.63-40.91-1.71-5.83-4.87-11.79-3.62-18.02zm195.26 3.08c2.34-2.21 5.22-5.14 8.74-4.48 2.55 2.25 1.29 6.28.77 9.19-2.81 9.64-6.78 19.05-7.64 29.16-1.01 13.14-2.21 26.46.2 39.53 3.18 16.36 8.6 32.55 8.07 49.41-.34 10.27-3.63 20.97-11.13 28.29-5.52 5.4-14.15 6.46-21.2 3.75-11.36-4.09-19.6-14.56-22.82-25.97-1.79-7.99-1.52-16.52-4.97-24.1-.84-2.05-2.51-3.51-4.22-4.82 2.42-21.92 1.26-45.13-9.08-65.04 7.36-4.1 13.16-10.39 20.35-14.72-2.28 16.94.01 34.04 3.05 50.74 1.05-5.49 2.47-10.93 3-16.5 1.18-10.42.96-21.13 4.27-31.19 1.4-4.08 3.47-8.41 7.66-10.23 1.45 1.2 2.03 3 1.75 4.86-.94 9.67-1.28 19.44-.07 29.11.71 7.81 2.67 15.43 3.63 23.2 1.74-14.95 1.62-30.26 5.96-44.8 2.78-9.24 7.15-18.21 13.68-25.39zm-373.85 74.3c1.21.92 1.21 4.85-.05 5.7-.67-1.74-.76-4 .05-5.7zm122.53 6.17c-1.78-1.59-1.38-4.79-.12-6.63.22 2.2.22 4.42.12 6.63zm317.42-6.6c1.27 1.86 1.55 4.96-.13 6.66-.14-2.22-.13-4.45.13-6.66zm122.1.43c1.26.91 1.24 4.85-.04 5.68-.67-1.74-.71-3.97.04-5.68zm-561.26 9.26h15.14l-7.55 13.79-7.59-13.79zm21.08 0h15.15l-7.6 13.74-7.55-13.74zm21.09 0h15.15l-7.56 13.75-7.59-13.75zm21.09 0h15.15l-7.19 13.02-.68.18c-2.51-4.35-4.83-8.81-7.28-13.2zm21.1 0h15.15L234.31 202c-1.04-.32-1.28-1.54-1.85-2.32l-5.97-10.97zm21.09 0h15.14l-7.47 13.59c-2.86-4.35-5.1-9.06-7.67-13.59zm334.7.01l15.13-.01c-2.58 4.51-4.77 9.27-7.7 13.57l-7.43-13.56zm21.07-.01h15.15c-2.43 4.31-4.63 8.74-7.19 12.97l-.63.31c-2.53-4.38-4.86-8.87-7.33-13.28zm21.09 0h15.16l-7.57 13.75-7.59-13.75zm21.1 0h15.15L653.37 202c-3.37-3.74-5.1-8.97-7.83-13.29zm21.09 0h15.15l-7.6 13.76-7.55-13.76zm21.09 0h15.14l-7.6 13.77-7.54-13.77zm-557.1 17.45c2.88-5.13 5.52-10.41 8.63-15.41l8.46 15.38-8.59 15.47-8.5-15.44zm21.09-.02l8.53-15.5 8.56 15.49-8.55 15.56-8.54-15.55zm29.59-15.49c2.95 5.09 5.68 10.31 8.58 15.44-2.76 5.29-5.84 10.41-8.5 15.76l-8.58-15.7 8.5-15.5zm12.58 15.48l8.6-15.47 8.5 15.49-8.56 15.55-8.54-15.57zm21.09.02l8.56-15.55 8.53 15.55-8.52 15.56-8.57-15.56zm21.09-.01l8.57-15.52 8.51 15.51-8.54 15.57-8.54-15.56zm21.08-.01l8.55-15.53 8.54 15.55-8.55 15.62-8.54-15.64zm322.17-15.53l8.54 15.5-8.54 15.59-8.54-15.55 8.54-15.54zm21.06.01l8.57 15.52-8.53 15.57-8.56-15.58 8.52-15.51zm21.07 0l8.59 15.53-8.54 15.57-8.56-15.57 8.51-15.53zm12.57 15.54l8.6-15.51 8.5 15.49-8.55 15.58-8.55-15.56zm21.1-.03l8.56-15.52 8.53 15.54-8.54 15.57-8.55-15.59zm29.52-15.37c3.17 4.97 5.75 10.27 8.66 15.4l-8.54 15.54-8.55-15.57 8.43-15.37zm12.65 15.38l8.55-15.52 8.54 15.54-8.54 15.54-8.55-15.56zm-568.7 3.69c2.96 5.1 5.69 10.33 8.58 15.47l-8.49 15.55c-2.98-5.11-5.73-10.34-8.6-15.51l8.51-15.51zm21.1-.01c2.94 5.12 5.7 10.34 8.57 15.51l-8.55 15.56-8.54-15.45c2.75-5.26 5.7-10.4 8.52-15.62zm21.03.07c3.07 5.04 5.73 10.31 8.63 15.45l-8.54 15.56-8.55-15.59 8.46-15.42zm96.98 15.45l8.59-15.49 8.5 15.47-8.52 15.56-8.57-15.54zm292.52-.01l8.55-15.53 8.55 15.51-8.5 15.71-8.6-15.69zm113.99-15.53l8.54 15.53-8.54 15.57-8.55-15.56 8.55-15.54zm21.04.06c2.98 5.13 5.81 10.35 8.59 15.59-2.92 5.1-5.69 10.3-8.54 15.44l-8.55-15.56 8.5-15.47zm12.59 15.46l8.61-15.47 8.48 15.48-8.59 15.53-8.5-15.54zm-524.5-.02l8.55-15.5 8.55 15.53-8.55 15.57-8.55-15.6zm21.09.03l8.55-15.53 8.55 15.52c-2.74 5.21-5.83 10.24-8.36 15.56-3.15-4.87-5.8-10.41-8.74-15.55zm21.1.01l8.54-15.54 8.55 15.51-8.55 15.59-8.54-15.56zm21.07-.02l8.56-15.53 8.54 15.49-8.53 15.6-8.57-15.56zm334.71-.02l8.55-15.51 8.54 15.54-8.54 15.63-8.55-15.66zm21.09.01l8.55-15.51 8.54 15.54-8.55 15.55-8.54-15.58zm21.09.24c2.67-5.34 5.7-10.5 8.54-15.75l8.55 15.53-8.55 15.57-8.54-15.35zm21.08-.22l8.55-15.53 8.55 15.43c-2.76 5.28-5.71 10.44-8.55 15.67l-8.55-15.57zm-535.02 19.34c2.72-5.3 5.7-10.45 8.54-15.69l8.53 15.44c-1.43 2.8-2.94 5.55-4.52 8.26a192.51 192.51 0 0 0-7.97.02c-1.59-2.64-3.04-5.36-4.58-8.03zm71.8-15.69l8.54 15.63-4.43 8.03-8.19.01-4.46-8.06 8.54-15.61zm21.08 0l8.56 15.61-4.45 8.05-8.2.01-4.44-8.02c2.76-5.26 5.7-10.43 8.53-15.65zm21.04.02c2.96 5.11 5.7 10.35 8.6 15.49l-4.45 8.15h-8.19c-1.36-2.78-3.33-5.33-4.28-8.27 2.61-5.21 5.64-10.19 8.32-15.37zm12.6 15.63c2.76-5.26 5.7-10.43 8.54-15.65l8.53 15.68c-1.52 2.64-2.98 5.31-4.44 7.99-2.73 0-5.47 0-8.2-.01l-4.43-8.01zm21.09.06c2.71-5.31 5.7-10.47 8.53-15.72l8.56 15.63-4.48 8.06-8.2-.03c-1.42-2.68-2.87-5.34-4.41-7.94zm313.61-.08l8.57-15.62 8.52 15.63-4.44 8.01-8.19.02-4.46-8.04zm29.62-15.64l8.56 15.64-4.45 8.03-8.18.01-4.46-8.01c2.74-5.28 5.71-10.43 8.53-15.67zm12.56 15.53l8.55-15.53 8.54 15.5-4.46 8.18c-2.73 0-5.46 0-8.19-.01l-4.44-8.14zm29.61-15.52l8.55 15.69-4.43 7.98c-2.74 0-5.48 0-8.21-.01l-4.45-8.05 8.54-15.61zm21.09.01l8.56 15.61-4.47 8.05c-2.73 0-5.47 0-8.19-.01l-4.43-8.04 8.53-15.61zm54.74 15.44l8.54-15.44 8.53 15.37-4.53 8.32-8.04-.02-4.5-8.23zm-587.76.23c2.74-5.28 5.7-10.45 8.54-15.68l8.54 15.66c-1.51 2.62-2.97 5.28-4.39 7.97l-8.2.05-4.49-8zm21.09-.23l8.54-15.45 8.55 15.47-4.4 8.16-8.21.05-4.48-8.23zm126.52.2l8.57-15.59 8.52 15.44-4.48 8.18-8.19-.04-4.42-7.99zm271.45-.2l8.54-15.44 8.34 15.33c-.88 2.93-2.89 5.5-4.22 8.3l-8.18.04-4.48-8.23zm126.52-.06c2.96-5.07 5.67-10.27 8.55-15.39l8.54 15.64-4.48 8.03c-2.73 0-5.45 0-8.17-.02-1.52-2.73-3.04-5.46-4.44-8.26zm21.09.26c2.76-5.26 5.69-10.43 8.54-15.65l8.54 15.39c-1.41 2.82-2.93 5.57-4.5 8.3l-8.19-.06a268.59 268.59 0 0 0-4.39-7.98zm-592.22 8.02l2.47-4.49 2.46 4.49c-1.65-.01-3.29-.01-4.93 0zm23.54-4.5l2.46 4.5c-1.64-.01-3.28-.01-4.91 0l2.45-4.5zm18.64 4.5l2.46-4.49 2.45 4.49c-1.64-.01-3.28-.01-4.91 0zm23.53-4.48l2.47 4.47-4.91.01 2.44-4.48zm18.64 4.48l2.46-4.45 2.45 4.44-4.91.01zm21.1 0l2.46-4.48 2.44 4.47-4.9.01zm21.07-.01l2.49-4.45 2.44 4.47-4.93-.02zm23.56-4.48l2.46 4.49-4.92-.01 2.46-4.48zm18.63 4.48l2.46-4.48 2.45 4.49-4.91-.01zm21.08 0l2.46-4.48 2.45 4.49-4.91-.01zm252.81-4.48l2.46 4.48-4.91.01 2.45-4.49zm21.07.01l2.48 4.47-4.92.01 2.44-4.48zm21.1 0l2.47 4.47-4.93.01 2.46-4.48zm18.64 4.47l2.46-4.47 2.45 4.48-4.91-.01zm21.1 0l2.45-4.48 2.42 4.49-4.87-.01zm23.52-4.48l2.47 4.5-4.88-.02 2.41-4.48zm18.64 4.48l2.48-4.47 2.44 4.49-4.92-.02zm21.09 0l2.46-4.48 2.45 4.49-4.91-.01zm21.08.01l2.47-4.49 2.45 4.49c-1.64 0-3.29-.01-4.92 0z"/><path d="M734.99 252.64l2.47-4.49 2.46 4.49a405.08 405.08 0 0 0-4.93 0zm-613.89 3.5l162.65.01v76.6H121.1v-76.61M148.12 271v34.57l46.67-.01v-34.55l-46.67-.01m61.94 0l.01 34.57h46.67v-34.56l-46.68-.01zm351.18-14.85l162.66-.01v76.62c-54.22-.01-108.44 0-162.66-.01v-76.6m27.01 14.86l.01 34.55 46.66.01.01-34.57c-15.56 0-31.12-.01-46.68.01m61.96 0v34.56h46.66l.01-34.57-46.67.01zm-247.85 16.91c-1.3-2.54-1.39-5.61.08-8.1.96 2.63 1.03 5.5-.08 8.1zm40.2-8.1c1.45 2.49 1.39 5.57.05 8.09-1.08-2.6-1.03-5.46-.05-8.09zm-82.45 56.9c14.32-1.54 28.69-2.63 43.09-3.08l-.03 45.06c-14.4.48-28.78 1.54-43.11 3.08l.05-45.06zm81.68-3.09c14.41.48 28.81 1.51 43.14 3.13l.01 45.01c-14.35-1.56-28.76-2.5-43.17-3.13l.02-45.01zm-302.26 2.64l61.15-.01v44.59h-61.14l-.01-44.58zm64.65-.02h61.14l.01 44.6h-61.15v-44.6zm375.46.05l61.18-.05v44.6h-61.15l-.03-44.55zm64.67-.05h61.14l.01 44.6c-20.39-.01-40.77 0-61.15 0v-44.6zM278.4 352.7c14.2-4 28.57-7.48 43.08-10.18l.01 45c-14.51 2.77-28.92 6.13-43.14 10.14l.05-44.96zm245.11-10.18c14.52 2.7 28.88 6.18 43.09 10.17l.05 44.97c-14.22-4.02-28.63-7.37-43.14-10.15v-44.99zM63.57 381.28c-1.62-1.39-1.62-5.03-.01-6.46a51.57 51.57 0 0 1 .01 6.46zm717.84-6.48c1.63 1.44 1.57 5.03.01 6.53a44.48 44.48 0 0 1-.01-6.53zm-398.03 8.4c26.04-1.77 52.2-1.76 78.24 0l.01 38.78h-78.26l.01-38.78zm-319.72 1.18l14.89-.03-7.46 14.9-7.43-14.87zm20.38-.02h14.94l-7.41 14.83c-2.67-4.86-5.01-9.89-7.53-14.83zm20.29-.1c5.01.14 10.01.09 15.02.09-2.38 5.02-4.94 9.96-7.41 14.93l-7.61-15.02zm20.57.1h11.11l-.11 7.56c-.9 2.52-2.3 4.82-3.44 7.23-2.77-4.8-5.03-9.87-7.56-14.79zm14.63.01l49.69-.06c-7.81 4.73-13.12 13.43-13.19 22.63v35.18h-36.49l-.01-57.75zm76.16-.04l49.67.04-.03 57.75h-36.5l.01-33.13c.56-9.86-4.7-19.59-13.15-24.66zm129.97 2.8c11.36-1.63 22.79-2.8 34.23-3.67l.01 38.54c-11.05 0-22.1-.01-33.15-.02l.01-6.1c4.53-1.83 8.29-5.78 8.89-10.76 1.1-6.48-3.44-12.81-9.61-14.63l-.38-3.36zm119.44-3.67c11.45.87 22.89 2.06 34.27 3.67l-.39 3.34c-5.06 1.6-9.22 6.02-9.67 11.43-.78 6.1 3.37 11.84 8.96 13.96l.01 6.12H465.1v-38.52zm114.54.91l49.7-.07c-7.8 4.74-13.12 13.42-13.16 22.62l-.02 35.2h-36.48l-.04-57.75zm76.13-.07l49.69.07v57.75h-36.49l-.01-35.12c-.03-9.23-5.36-17.95-13.19-22.7zm53.22.06l11.1-.01-7.45 14.92-3.51-7.22c-.33-2.55-.14-5.13-.14-7.69zm16.67-.02h14.87l-7.47 14.95-7.4-14.95zm20.35.02h14.94l-7.44 14.92-7.5-14.92zm20.44-.01l14.92.01-7.46 14.93-7.46-14.94zm-685.18 2.04l8.37 16.65-8.35 16.68-8.34-16.68 8.32-16.65zm20.38.04c2.98 5.44 5.59 11.08 8.42 16.6l-8.31 16.62c-2.9-5.48-5.58-11.08-8.38-16.61l8.27-16.61zm12.16 16.6l8.35-16.67 8.34 16.67-8.34 16.7-8.35-16.7zm608.86-16.35c3.33 5.17 5.62 10.93 8.51 16.36l-8.34 16.68-8.34-16.68 8.17-16.36zm20.56-.26c2.9 5.48 5.58 11.08 8.38 16.62l-8.35 16.68-8.34-16.68 8.31-16.62zm20.47-.06l8.34 16.68-8.4 16.62-8.29-16.63 8.35-16.67zm-258.33 1.65c12.74 1.94 25.41 4.33 37.97 7.23v50.54c-9.98-2.28-20.01-4.32-30.09-6.08l-5.86-13.81c-1.64-3.11-.88-6.7-.99-10.05 5.89-2.14 10.07-8.45 8.83-14.76-.73-5.12-4.81-9.05-9.58-10.64l-.28-2.43zm-203.7 7.23c12.61-2.86 25.32-5.39 38.13-7.2l-.57 2.37c-4.22 1.75-8.15 4.89-9.19 9.56-1.94 6.59 2.32 13.65 8.61 15.92-.04 2.53.2 5.1-.16 7.62-2.07 5.49-4.56 10.8-6.76 16.24-10.07 1.78-20.1 3.8-30.07 6.07l.01-50.58zm-239.06-5.36l6.6 13.17-6.59 13.16-.01-26.33zm713.17 13.16l6.6-13.17v26.37l-6.6-13.2zm-506.94 1.14c9.68-3.03 19.47-5.72 29.33-8.11l-.01 50.58c-9.84 2.34-19.61 4.95-29.32 7.76v-50.23zm277.99-8.11c9.86 2.4 19.65 5.08 29.33 8.1v50.23c-9.7-2.79-19.43-5.48-29.27-7.74l-.06-50.59zm-411.06 3.54c.22 2.3.25 4.62.21 6.93l-1.73-3.47 1.52-3.46zm573.32-.07l1.69 3.53-1.77 3.2.08-6.73zM62.75 423.56c2.7-5.63 5.55-11.18 8.34-16.76l8.34 16.58-8.34 16.76-8.34-16.58zm28.74-16.78l8.36 16.84c-2.88 5.46-5.54 11.04-8.35 16.53l-8.33-16.83c2.87-5.47 5.55-11.02 8.32-16.54zm32.53 16.6c2.89-5.46 5.42-11.1 8.42-16.49 1.38 3.29 4.04 6.32 3.61 10.11-.15 5.29.21 10.61-.18 15.89-.95 2.5-2.33 4.8-3.47 7.21-2.88-5.52-5.64-11.11-8.38-16.72zM708.95 417c-.42-3.82 2.19-6.9 3.71-10.16l8.31 16.56-8.4 16.67c-1.14-2.4-2.5-4.69-3.44-7.17-.4-5.28-.04-10.61-.18-15.9zm44.5-10.2l8.38 16.53c-2.69 5.66-5.56 11.22-8.36 16.82l-8.16-16.46c2.21-5.8 5.53-11.22 8.14-16.89zm12.12 16.52c2.87-5.46 5.54-11.03 8.34-16.54l8.34 16.78-8.34 16.53-8.34-16.77zm-660.72-2.43l7.09-14.11 8.34 16.64-8.34 16.73-7.75-15.48c-1.07-1.26.23-2.59.66-3.78zm619.86 2.55l8.35-16.65c2.62 5.66 5.98 11.09 8.15 16.9-2.57 5.55-5.45 10.96-8.15 16.45l-8.35-16.7zm-382.33-7.62c1.38 1.66 1.63 5.2-.18 6.55-.08-2.19-.07-4.38.18-6.55zm160.41 6.57c-2.02-1.54-.71-4.54-.79-6.7 1.46 1.92.74 4.47.79 6.7zm-159.76 3.08l12.96-.01-6.42 15.26c-2.34-5.01-4.36-10.17-6.54-15.25zm18.24-.01h12.96c-2.17 5.09-4.19 10.24-6.54 15.25l-6.42-15.25zm18.25.01l12.96.06c-2.1 4.73-3.95 9.58-6.1 14.29l-.72.12c-2.15-4.78-4.07-9.66-6.14-14.47zm18.24-.01h12.98l-6.53 15.25-6.45-15.25zm18.24 0h12.98l-6.5 15.37-6.48-15.37zm18.24 0h12.98l-6.47 15.38-6.51-15.38zm36.52.01l12.95-.01-6.51 15.25-6.44-15.24zm18.23-.01h12.97l-6.46 15.44-6.51-15.44zm-36.49.01h12.97l-6.49 15.34-6.48-15.34zM81.34 426.9c2.18 5.21 4.97 10.13 7.4 15.22H73.86c2.47-5.09 5.14-10.08 7.48-15.22zm12.93 15.22c2.45-5.05 5.14-9.99 7.43-15.11 2.38 5.08 5 10.05 7.46 15.11H94.27zm27.89-14.9l7.44 14.9c-4.97 0-9.93.01-14.89-.01l7.45-14.89zm265.74 18.02l7.24-17 7.21 16.98-7.18 17c-2.62-5.57-4.88-11.31-7.27-16.98zm61.94-17.01l6.28 14.72c.41 1.14 1.22 2.4.43 3.6l-6.71 15.74-7.21-17.01 7.21-17.05zm272.93-.92c2.68 4.84 5.01 9.87 7.52 14.81h-14.9l7.38-14.81zm20.55-.44c2.14 5.23 4.96 10.15 7.4 15.25h-14.89c2.46-5.1 5.16-10.09 7.49-15.25zm12.93 15.25l7.45-14.92 7.43 14.92h-14.88zm-415.9-13.85c2.53 5.62 4.81 11.35 7.26 17l-7.24 17.1-7.21-17.06 7.19-17.04zm11.05 17l7.21-17.28c2.31 5.8 4.81 11.52 7.25 17.26l-7.21 17.1-7.25-17.08zm25.43-16.93c2.6 5.54 4.76 11.27 7.27 16.85-2.32 5.76-4.79 11.46-7.22 17.18l-7.23-17.12 7.18-16.91zm36.54-.31c2.29 5.8 4.8 11.5 7.22 17.24l-7.15 17.02c-2.63-5.59-4.89-11.35-7.3-17.03l7.23-17.23zm18.25.17l7.22 17.09-7.24 17.11-7.21-17.11 7.23-17.09zm29.26 17.04l7.22-17.07 7.23 17.09-7.17 16.92c-2.68-5.53-4.88-11.28-7.28-16.94zm18.24.06l7.23-17.11 7.23 17.1-7.15 16.99c-2.65-5.57-4.86-11.33-7.31-16.98zm25.48-17.1l7.23 17.1c-2.47 5.62-4.61 11.4-7.33 16.91l-7.13-16.93 7.23-17.08zm-441.98 2.56l5.7 11.36c-1.9-.01-3.8 0-5.7 0v-11.36z"/><path d="M776.68 442.11l5.69-11.34-.04 11.38-5.65-.04zm-507.85 15.96c20.14-5.94 40.59-10.78 61.25-14.47l-17.05 40.5h16.94v9.83c-20.62 3.68-41.02 8.49-61.13 14.35l-.01-50.21zm246.06-14.52c20.68 3.68 41.14 8.55 61.28 14.52l-.01 50.2c-20.1-5.88-40.51-10.73-61.13-14.39v-9.78h16.98l-17.12-40.55zM67.2 445.64l68.83-.01-.01 57.76H67.21l-.01-57.75m11.08 11.59v26.87h46.68v-26.88l-46.68.01zm61.25-11.6h36.49v57.76l-36.49.01v-57.77zm89.3 0h36.5v57.76h-36.49l-.01-57.76zm350.85 0h36.48v57.76h-36.47l-.01-57.76zm89.29 0h36.49v57.77c-12.16 0-24.32 0-36.49-.01v-57.76zm40 0l68.82.01v57.75h-68.82v-57.76m11.07 11.6v26.87h46.67v-26.87c-15.56-.01-31.12 0-46.67 0zm-396.01 9.68l7.25-17.08 7.21 17.06-5.81 13.74-2.88-.06-5.77-13.66zm25.46-17.12l7.25 17.15-5.83 13.68c-.7 0-2.1 0-2.8-.01l-5.83-13.7 7.21-17.12zm18.25.04l7.25 17.07-5.77 13.67-2.88.06-5.81-13.72 7.21-17.08zm11.04 17.07c2.44-5.65 4.66-11.38 7.27-16.95l7.17 16.95-5.81 13.79-2.73-.16c-2.24-4.42-3.9-9.11-5.9-13.63zm18.24.01l7.24-17.09 7.21 17.08-5.81 13.73-2.88-.07-5.76-13.65zm25.46-17.11l7.24 17.1-5.82 13.71-2.79.02-5.04-11.73c-.36-.99-1.04-2.05-.35-3.06l6.76-16.04zm18.22.06c2.53 5.63 4.83 11.36 7.27 17.04l-5.77 13.67-2.89.06-5.8-13.72 7.19-17.05zm11.06 17.03l7.22-17.08 7.22 17.1c-2 4.51-3.67 9.17-5.86 13.59l-2.75.21-5.83-13.82zm18.24.03l7.25-17.09 7.21 17.08-5.81 13.71-2.88-.04-5.77-13.66zm25.46-17.11l7.25 17.08-5.86 13.74c-.69 0-2.08-.01-2.78-.01l-5.83-13.69 7.22-17.12zm18.23.01l7.26 17.08-5.74 13.64-2.91.1-5.81-13.76 7.2-17.06zm-195.44 30.79l3.97-8.93 3.82 8.93c-2.6-.01-5.2-.01-7.79 0zm18.24 0l3.9-9.22 3.86 9.21-7.76.01zm22.12-9.2l3.93 9.15-7.8.05 3.87-9.2zm18.21.23c1.48 2.91 2.7 5.95 3.95 8.97a1008.81 1008.81 0 0 0-7.78 0l3.83-8.97zm14.41 8.96l3.89-9.12 3.9 9.13-7.79-.01zm18.25.01l3.9-9.21 3.88 9.2-7.78.01zm22.12-9.21l3.89 9.21-7.76-.01 3.87-9.2zm18.19.24c1.49 2.91 2.7 5.95 3.95 8.97a1006.22 1006.22 0 0 0-7.77 0l3.82-8.97zm14.42 8.97l3.99-8.89 3.8 8.89c-2.6-.01-5.2-.01-7.79 0zm18.25 0l3.9-9.21 3.88 9.2-7.78.01zm18.26-.01l3.93-9.12 3.82 9.13-7.75-.01zm22.05-8.96c1.51 2.9 2.72 5.94 3.97 8.97-2.6-.01-5.2-.01-7.79 0l3.82-8.97zm-189.31 12.47h178.08l-.01 39.5H333.46v-39.5zm-64.62 27.82c20.1-5.9 40.51-10.76 61.13-14.44v29.62h9.19v55.11c-3.95.01-7.91.02-11.86-.02l.01-40.2c-16.91-3.06-34-5.92-50.13-12.05l-.01 45.21c-2.88-1.45-5.71-3-8.39-4.78l.06-58.45zm246.19-14.49c20.63 3.67 41.04 8.55 61.13 14.49l.06 58.47c-2.7 1.76-5.52 3.32-8.39 4.76l-.01-45.2c-16.14 6.12-33.22 8.99-50.14 12.05l-.03 40.24-11.81-.02-.01-55.12h9.2v-29.67zM85.85 506.9l15.19.01c1.48-.31 2.35 1.04 3.31 1.87l31.43 31.57c.6 5.53.07 11.17.24 16.74L85.85 506.9zm53.68 0h28.82l.04 57.71-28.87.05.01-57.76zm32.33 0H233l-.01 57.77c-20.35 0-40.71-.03-61.07.02l-.06-57.79zm64.65 0h28.82l.01 57.75-28.84.01.01-57.76zm343.18 0h28.8l.01 57.75h-28.81V506.9zm32.31 0h61.14l.03 57.68-61.17.08V506.9zm64.65-.01h28.81l.01 57.76h-28.83l.01-57.76zm65.66.4c5.41-.95 11.25-.13 16.83-.39l-50.17 50.18.05-16.68 33.29-33.11zm-399.64 19.82h159.66v48.88c-53.22 0-106.44 0-159.66-.01v-48.87m15.04 10.39v26.81l52.78.01.01-26.83c-17.6 0-35.2-.01-52.79.01m76.79-.01v26.83l52.78-.01.01-26.81-52.79-.01zm-153.82-2.57c14 4.79 28.61 7.38 43.13 9.99v37.31c-14.48-.01-29.69 1.13-43.13-5.36v-41.94zm240.5 10c14.52-2.62 29.13-5.2 43.13-9.99l.01 41.92c-13.44 6.51-28.66 5.36-43.14 5.38v-37.31zm-381.67 23.24h61.2v57.77l-61.2.01v-57.78zm64.65 0h61.17v57.78h-61.17v-57.78zm375.54 0h61.14v57.78h-61.15l.01-57.78zm64.59.01l61.19-.01v57.78c-20.4-.01-40.8.01-61.19-.01v-57.76zm-375.45 6.45c9.05 5.3 18.9 9.6 29.44 10.64v58.84c-10.61-1.18-20.42-5.79-29.45-11.27l.01-58.21zm277.87 10.65c10.55-1.04 20.4-5.35 29.46-10.65v58.21c-9.03 5.47-18.85 10.11-29.46 11.27v-58.83zm-204.04-5.76l59.62-.01c-20.14 7.18-35.77 26.75-36.06 48.46l-.02 196.96c-7.89-.98-15.81-1.58-23.56-3.42l.02-241.99zm100.02-.02l59.64.02-.01 242.12c-7.76 1.77-15.67 2.35-23.54 3.36l-.03-197.03c-.26-21.72-15.92-41.29-36.06-48.47zm-140.91 6.08c12.46.33 24.92.06 37.38.15l.03 58.79c-12.47.03-24.95.23-37.41-.12v-58.82zm204.06.16l37.37-.16.01 58.82c-12.47.35-24.94.15-37.41.13l.03-58.79z"/><path d="M139.53 629.45h28.83l-.01 57.75h-28.82v-57.75zm32.31.04l61.14-.06.02 57.77h-61.14l-.02-57.71zm64.66-.05l28.83.01v57.75h-28.82l-.01-57.76zm343.19 0h28.8v57.76h-28.81l.01-57.76zm32.34-.03h61.04l.07 57.79h-61.15l.04-57.79zm64.61.03h28.83l-.01 57.76h-28.81l-.01-57.76zm-407.8 7.49l8.27 4.4.05 58.53a133.09 133.09 0 0 1-8.33-4.66l.01-58.27zm299.04 4.4l8.28-4.4.01 58.26a135 135 0 0 1-8.31 4.67l.02-58.53zm-287.23 1.75c13.63 5.9 28.67 5 43.17 4.97v58.88c-14.49-.04-29.73 1.14-43.16-5.41l-.01-58.44zm240.53 4.97c14.48 0 29.56.99 43.16-5.01v58.47c-13.43 6.56-28.67 5.38-43.16 5.42v-58.88zm-193.87 0h11.85v58.88h-11.85v-58.88zm178.52.01l11.85-.01v58.88h-11.85v-58.87zm-366.32 42.65l61.16-.02.04 58.39c-6.26-.02-12.52.04-18.77 0-1.66.23-2.82-1.1-4.02-1.96-8.59-7.04-17.01-14.29-24.95-22.05-4.19-5.04-9.07-9.44-13.46-14.3v-20.06zm64.65 0h61.17v58.37h-61.17v-58.37zm375.51-.01l61.17.02v58.35l-61.18.01.01-58.38zm64.62 58.37l.05-58.39 61.14.02-.03 20.07c-4.45 4.8-9.29 9.24-13.48 14.27-8.69 8.37-17.73 16.43-27.29 23.78-6.75.61-13.6.08-20.39.25zm-375.46-49.78c9.06 5.31 18.92 9.58 29.46 10.68l-.01 59.42c-10.61-1.16-20.42-5.79-29.45-11.25v-58.85zm277.88 10.69c10.54-1.11 20.4-5.38 29.46-10.69v58.85c-9.04 5.46-18.85 10.09-29.46 11.26v-59.42zm-244.93.27c12.46.36 24.94.02 37.4.2l-.02 59.41c-12.47-.14-24.97.31-37.43-.25l.05-59.36zm204.02.24l37.45-.16v59.31c-12.47.5-24.95.1-37.42.23l-.03-59.38zm-320.82 42.09l47.98-.02.03 29.92c-5.5-2.66-10.38-6.57-16.28-8.33-10.95-6.61-21.54-13.84-31.73-21.57zm51.53.01h28.82l.01 45.28c-9.81-4.08-19.41-8.64-28.83-13.52v-31.76zm343.16 0h28.82v31.78c-9.4 4.92-19.03 9.41-28.78 13.58l-.04-45.36zm32.33 0l48.02-.01c-10.26 7.67-20.81 14.99-31.79 21.59-5.89 1.75-10.74 5.68-16.23 8.33v-29.91z"/><path d="M268.85 762.24l8.33 4.49-.02 35.89-8.34-3.3.03-37.08zm298.97 4.48l8.33-4.48.03 37.13-8.32 3.32-.04-35.97zm-287.15 1.58c13.57 6.09 28.68 5.02 43.15 5.05l-.01 44.12c-10.39-2.4-20.53-5.7-30.72-8.77-4.23-1.35-8.47-2.75-12.41-4.83l-.01-35.57zm240.51 5.06c14.47-.03 29.58 1.03 43.15-5.06l-.02 35.65c-7.67 3.9-16.12 5.8-24.26 8.43-6.21 2.01-12.54 3.61-18.88 5.16l.01-44.18zm-193.87-.01l11.84-.01.01 47.52c-3.97-.79-7.92-1.64-11.86-2.58l.01-44.93zm178.49.08c3.95-.13 7.92-.08 11.88-.07l-.01 45.04-11.84 2.55-.03-47.52z"/></g><g fill="#231f20"><path d="M19.83 5.06h805.34l-.06 411.88c-2.34 77.9-19.28 156.49-57.3 225.04-15.8 28.68-35.25 55.33-57.76 79.12-5.79 7.46-13.2 13.41-19.92 19.99-12.95 11.57-26.57 22.42-41 32.09-1.8 1.37-4.07 1.83-5.99 2.98-12.68 8.27-25.93 15.63-39.47 22.39-5.19 2.49-10.57 4.6-15.53 7.54-14.05 6.04-28.41 11.37-43.06 15.76-25.25 6.83-50.92 12.39-77 14.87-40.57 3.75-81.72 2.8-121.87-4.36-14.28-2.32-28.26-6.12-42.32-9.43-16.02-4.55-31.68-10.32-46.98-16.87-4.77-2.81-9.92-4.86-14.91-7.22-13.8-6.83-27.3-14.3-40.21-22.7-7.81-3.26-14.34-8.85-21.13-13.8-8.64-6.23-16.66-13.24-24.73-20.17-7.26-7.09-15.25-13.52-21.52-21.55-20.29-21.51-38.09-45.37-52.88-70.98-35.66-61.21-54.08-131.28-59.83-201.56-.81-11.69-1.79-23.37-1.88-35.09l.01-407.93m10.49 409.99c2.01 68.36 15.18 137.12 44.45 199.23 15.81 33.64 36.38 65.08 61.28 92.7l.05-144.7c-5.11-6.3-11.38-11.57-16.95-17.47l-37.68-37.56c-5.36-1.72-11.72 1.21-16.77-1.64l-.4.72c-.75-20.28.02-40.61-.4-60.9l-4.84-.14.06-70.47c-5.54-2.21-9.75-7.84-8.98-13.96.47-5.41 4.6-9.81 9.65-11.42 1.41-10.85 1.84-21.83 3.57-32.64.7 10.88 2.08 21.69 3.04 32.54 3.42 1.39 6.83 3.47 8.38 6.98 3.47 6.31.33 15.25-6.52 17.71-2.38 1.36-.85 4.7-1.21 6.93l69.05.03-.08-.93.01-43.24.03-.82c-6.04-.01-12.08.01-18.12-.01l-.03-79.96c-6.28-.28-12.61.46-18.85-.46 2.59-3.39 4.38-7.27 6.47-10.96l30.88-56.14c1.76-2.8.91-6.23 1.03-9.34-5.96-2.26-10.21-8.66-8.78-15.09.79-5.12 5.03-8.66 9.6-10.51 1.1-10.55 1.73-21.17 3.37-31.65l3.05 31.69c4.58 1.78 8.78 5.35 9.58 10.44 1.43 6.42-2.78 12.87-8.77 15.08l-.04 6.13 113.95.01-.01-6.11c-6.99-2.49-11.2-10.88-7.96-17.8 1.41-3.96 5.2-5.96 8.64-7.85 1.35-10.83 2.02-21.75 3.43-32.57l3.11 32.68c5.29 1.89 9.78 6.56 9.82 12.43.4 5.92-3.81 10.97-9.04 13.18.18 2.91-.65 6.11.81 8.79l35.38 64.42a44.2 44.2 0 0 0 2.03 3.08c-6.09 1.18-12.38.18-18.55.54l-.06 80-18.23-.01.04 1-.02 63.54 5.19-1.6.97-.02.03-48.78c16.42-4.88 33.13-8.77 49.99-11.77l.01 48.52c4.97-.86 9.93-1.76 14.94-2.39 1.07-8.89 1.92-17.81 2.59-26.73 1.37 8.6 1.7 17.32 2.9 25.94 3.68-.62 7.38-1.08 11.09-1.43l.12-48.6c16.61-2.04 33.32-3.11 50.04-3.65l.01 48.58c10.55-.26 21.1-.27 31.65 0l.02-48.57c16.71.53 33.43 1.6 50.03 3.64l.09 48.57 11.3 1.38c.9-8.63 1.44-17.3 2.79-25.87.59 8.93 1.52 17.84 2.55 26.74 4.99.65 9.95 1.52 14.9 2.39l.01-48.53c16.87 3.02 33.59 6.89 50.01 11.78l.04 48.84.96-.05 5.19 1.61-.03-63.51.06-1.01-18.26-.01-.04-79.99c-6.15-.25-12.34.4-18.46-.39l37.03-67.11c1.81-2.78.94-6.23 1.11-9.35-5.24-2.17-9.45-7.25-9.05-13.15.04-5.87 4.54-10.55 9.83-12.45l3.08-32.66c1.47 10.8 2.07 21.71 3.46 32.51 3.14 1.94 6.87 3.58 8.34 7.28 3.73 6.95-.42 15.88-7.65 18.42l-.02 6.09 113.94.01-.01-6.13c-5.6-2.17-9.8-7.88-8.96-14.03.42-5.52 4.78-9.68 9.75-11.51l3.16-31.17c1.6 10.28 2.03 20.72 3.37 31.04 3.47 1.91 7.27 3.95 8.69 7.94 3.19 6.91-1.03 15.24-7.97 17.73.06 3.35-.73 7.05 1.34 9.99l36.81 66.47c-6.16.96-12.43.18-18.62.46l-.05 79.97-18.09.01.01 44.08-.08.91 69.02-.03c-.38-2.25 1.16-5.54-1.17-6.92-6.94-2.47-10.08-11.55-6.49-17.9 1.58-3.43 4.94-5.43 8.3-6.81.93-10.86 2.44-21.69 2.96-32.58 1.89 10.81 2.19 21.83 3.67 32.7 6.45 1.86 11.02 8.78 9.39 15.45-.86 4.66-4.57 8.07-8.75 9.93l.1 70.47-4.8.1c-.48 20.33.3 40.7-.39 61.02-5.6.72-11.31-.02-16.9.6-15.71 15.18-30.96 30.89-46.49 46.28-2.82 3.01-6.13 5.59-8.47 9.02l.06 144.58c40.6-44.94 69.33-99.94 85.86-158.05 12.46-43.16 18.53-88.02 19.86-132.87l-.02-400.45c-261.41.02-522.83.06-784.25-.02l-.07 399.54M138.2 157.32c-7.14 2.15-8.71 12.78-2.6 16.98 5.68 4.71 15.67.31 15.48-7.22.87-6.75-6.66-12.15-12.88-9.76m121.99-.02c-7.2 2.11-8.79 12.82-2.63 17.01 5.69 4.69 15.62.29 15.47-7.22.86-6.73-6.62-12.14-12.84-9.79m318.11.01c-6.78 2.16-8.66 12.04-3.14 16.51 5.27 5.1 15.39 1.59 16.04-5.84 1.43-7.05-6.26-13.25-12.9-10.67m121.94-.02c-2.93 1.08-5.3 3.61-6.1 6.63-1.64 5.69 2.79 12.29 8.85 12.2 5.97.75 11.27-5.25 10.14-11.07-.58-5.99-7.36-9.81-12.89-7.76m-558.9 22.16c-.81 1.7-.72 3.96-.05 5.7 1.26-.85 1.26-4.78.05-5.7m122.53 6.17c.1-2.21.1-4.43-.12-6.63-1.26 1.84-1.66 5.04.12 6.63m317.42-6.6c-.26 2.21-.27 4.44-.13 6.66 1.68-1.7 1.4-4.8.13-6.66m122.1.43c-.75 1.71-.71 3.94-.04 5.68 1.28-.83 1.3-4.77.04-5.68m-561.26 9.26l7.59 13.79 7.55-13.79a3820.33 3820.33 0 0 0-15.14 0m21.08 0l7.55 13.74c2.62-4.53 5.08-9.15 7.6-13.74a3825.38 3825.38 0 0 0-15.15 0m21.09 0l7.59 13.75 7.56-13.75a3825.38 3825.38 0 0 0-15.15 0m21.09 0l7.28 13.2c.17-.04.51-.13.68-.18 2.52-4.27 4.77-8.7 7.19-13.02a3825.38 3825.38 0 0 0-15.15 0m21.1 0l5.97 10.97c.57.78.81 2 1.85 2.32 2.53-4.38 4.87-8.87 7.33-13.29a3825.38 3825.38 0 0 0-15.15 0m21.09 0c2.57 4.53 4.81 9.24 7.67 13.59l7.47-13.59a3820.33 3820.33 0 0 0-15.14 0m334.7.01l7.43 13.56c2.93-4.3 5.12-9.06 7.7-13.57a2543.53 2543.53 0 0 0-15.13.01m21.07-.01l7.33 13.28.63-.31c2.56-4.23 4.76-8.66 7.19-12.97a3825.38 3825.38 0 0 0-15.15 0m21.09 0l7.59 13.75 7.57-13.75a3830.43 3830.43 0 0 0-15.16 0m21.1 0c2.73 4.32 4.46 9.55 7.83 13.29l7.32-13.29a3825.38 3825.38 0 0 0-15.15 0m21.09 0l7.55 13.76 7.6-13.76a3825.38 3825.38 0 0 0-15.15 0m21.09 0l7.54 13.77 7.6-13.77a3820.33 3820.33 0 0 0-15.14 0m-557.1 17.45l8.5 15.44c3-5.08 5.72-10.32 8.59-15.47l-8.46-15.38c-3.11 5-5.75 10.28-8.63 15.41m21.09-.02l8.54 15.55 8.55-15.56-8.56-15.49-8.53 15.5m29.59-15.49l-8.5 15.5 8.58 15.7c2.66-5.35 5.74-10.47 8.5-15.76l-8.58-15.44m12.58 15.48l8.54 15.57 8.56-15.55-8.5-15.49c-3 5.08-5.72 10.32-8.6 15.47m21.09.02l8.57 15.56 8.52-15.56-8.53-15.55-8.56 15.55m21.09-.01l8.54 15.56 8.54-15.57-8.51-15.51-8.57 15.52m21.08-.01l8.54 15.64 8.55-15.62-8.54-15.55-8.55 15.53m322.17-15.53l-8.54 15.54 8.54 15.55 8.54-15.59-8.54-15.5m21.06.01l-8.52 15.51 8.56 15.58 8.53-15.57-8.57-15.52m21.07 0l-8.51 15.53 8.56 15.57 8.54-15.57-8.59-15.53m12.57 15.54l8.55 15.56 8.55-15.58-8.5-15.49c-2.96 5.12-5.74 10.34-8.6 15.51m21.1-.03l8.55 15.59 8.54-15.57-8.53-15.54-8.56 15.52m29.52-15.37l-8.43 15.37 8.55 15.57 8.54-15.54c-2.91-5.13-5.49-10.43-8.66-15.4m12.65 15.38l8.55 15.56 8.54-15.54-8.54-15.54-8.55 15.52m-568.7 3.69l-8.51 15.51 8.6 15.51 8.49-15.55-8.58-15.47m21.1-.01l-8.52 15.62 8.54 15.45 8.55-15.56-8.57-15.51m21.03.07l-8.46 15.42 8.55 15.59 8.54-15.56c-2.9-5.14-5.56-10.41-8.63-15.45m96.98 15.45l8.57 15.54 8.52-15.56-8.5-15.47c-2.98 5.1-5.73 10.33-8.59 15.49m292.52-.01l8.6 15.69c2.67-5.32 5.7-10.45 8.5-15.71l-8.55-15.51-8.55 15.53m113.99-15.53l-8.55 15.54 8.55 15.56 8.54-15.57-8.54-15.53m21.04.06l-8.5 15.47 8.55 15.56 8.54-15.44-8.59-15.59m12.59 15.46l8.5 15.54c2.95-5.13 5.73-10.35 8.59-15.53l-8.48-15.48c-3.01 5.08-5.72 10.32-8.61 15.47m-524.5-.02l8.55 15.6 8.55-15.57-8.55-15.53-8.55 15.5m21.09.03c2.94 5.14 5.59 10.68 8.74 15.55 2.53-5.32 5.62-10.35 8.36-15.56l-8.55-15.52-8.55 15.53m21.1.01l8.54 15.56 8.55-15.59-8.55-15.51-8.54 15.54m21.07-.02l8.57 15.56 8.53-15.6-8.54-15.49-8.56 15.53m334.71-.02l8.55 15.66 8.54-15.63-8.54-15.54-8.55 15.51m21.09.01l8.54 15.58 8.55-15.55-8.54-15.54-8.55 15.51m21.09.24c2.98 5.04 5.68 10.24 8.54 15.35l8.55-15.57-8.55-15.53c-2.84 5.25-5.87 10.41-8.54 15.75m21.08-.22l8.55 15.57 8.55-15.67c-2.94-5.1-5.68-10.3-8.55-15.43l-8.55 15.53m-535.02 19.34l4.58 8.03a192.51 192.51 0 0 1 7.97-.02c1.58-2.71 3.09-5.46 4.52-8.26l-8.53-15.44-8.54 15.69m71.8-15.69l-8.54 15.61 4.46 8.06 8.19-.01 4.43-8.03-8.54-15.63m21.08 0l-8.53 15.65 4.44 8.02 8.2-.01 4.45-8.05-8.56-15.61m21.04.02c-2.68 5.18-5.71 10.16-8.32 15.37.95 2.94 2.92 5.49 4.28 8.27h8.19l4.45-8.15-8.6-15.49m12.6 15.63c1.51 2.64 2.98 5.32 4.43 8.01l8.2.01 4.44-7.99c-2.72-5.3-5.7-10.45-8.53-15.68l-8.54 15.65m21.09.06c1.54 2.6 2.99 5.26 4.41 7.94l8.2.03 4.48-8.06-8.56-15.63-8.53 15.72m313.61-.08l4.46 8.04 8.19-.02 4.44-8.01-8.52-15.63-8.57 15.62m29.62-15.64l-8.53 15.67 4.46 8.01 8.18-.01 4.45-8.03-8.56-15.64m12.56 15.53l4.44 8.14 8.19.01 4.46-8.18-8.54-15.5-8.55 15.53m29.61-15.52l-8.54 15.61 4.45 8.05 8.21.01 4.43-7.98c-2.73-5.29-5.69-10.47-8.55-15.69m21.09.01l-8.53 15.61 4.43 8.04 8.19.01 4.47-8.05-8.56-15.61m54.74 15.44c1.43 2.78 2.94 5.52 4.5 8.23l8.04.02c1.6-2.72 3.12-5.49 4.53-8.32-2.95-5.06-5.67-10.25-8.53-15.37l-8.54 15.44m-587.76.23l4.49 8 8.2-.05c1.42-2.69 2.88-5.35 4.39-7.97-2.76-5.27-5.7-10.44-8.54-15.66l-8.54 15.68m21.09-.23c1.43 2.77 2.94 5.5 4.48 8.23l8.21-.05 4.4-8.16-8.55-15.47-8.54 15.45m126.52.2c1.52 2.64 2.98 5.3 4.42 7.99l8.19.04 4.48-8.18-8.52-15.44-8.57 15.59m271.45-.2c1.43 2.77 2.94 5.5 4.48 8.23l8.18-.04c1.33-2.8 3.34-5.37 4.22-8.3-2.64-5.19-5.58-10.21-8.34-15.33l-8.54 15.44m126.52-.06c1.4 2.8 2.92 5.53 4.44 8.26l8.17.02 4.48-8.03-8.54-15.64-8.55 15.39m21.09.26a268.59 268.59 0 0 1 4.39 7.98l8.19.06c1.57-2.73 3.09-5.48 4.5-8.3-2.96-5.07-5.68-10.27-8.54-15.39l-8.54 15.65m-592.22 8.02H110l-2.46-4.49-2.47 4.49m23.54-4.5l-2.45 4.5h4.91l-2.46-4.5m18.64 4.5h4.91l-2.45-4.49-2.46 4.49m23.53-4.48l-2.44 4.48 4.91-.01-2.47-4.47m18.64 4.48l4.91-.01-2.45-4.44-2.46 4.45m21.1 0l4.9-.01-2.44-4.47-2.46 4.48m21.07-.01l4.93.02-2.44-4.47-2.49 4.45m23.56-4.48l-2.46 4.48 4.92.01-2.46-4.49m18.63 4.48l4.91.01-2.45-4.49-2.46 4.48m21.08 0l4.91.01-2.45-4.49-2.46 4.48m252.81-4.48l-2.45 4.49 4.91-.01-2.46-4.48m21.07.01l-2.44 4.48 4.92-.01-2.48-4.47m21.1 0l-2.46 4.48 4.93-.01-2.47-4.47m18.64 4.47l4.91.01-2.45-4.48-2.46 4.47m21.1 0l4.87.01-2.42-4.49-2.45 4.48m23.52-4.48l-2.41 4.48 4.88.02-2.47-4.5m18.64 4.48l4.92.02-2.44-4.49-2.48 4.47m21.09 0l4.91.01-2.45-4.49-2.46 4.48m21.08.01h4.92l-2.45-4.49-2.47 4.49m21.08 0h4.93l-2.46-4.49-2.47 4.49m-613.89 3.5v76.61h162.65v-76.6l-162.65-.01m440.14.01v76.6l162.66.01v-76.62l-162.66.01m-201.13 80.57l-.05 45.06c14.33-1.54 28.71-2.6 43.11-3.08l.03-45.06c-14.4.45-28.77 1.54-43.09 3.08m81.68-3.09l-.02 45.01c14.41.63 28.82 1.57 43.17 3.13l-.01-45.01c-14.33-1.62-28.73-2.65-43.14-3.13m-302.26 2.64l.01 44.58h61.14v-44.59c-20.39 0-40.77-.02-61.15.01m64.65-.02v44.6h61.15l-.01-44.6h-61.14m375.46.05l.03 44.55h61.15v-44.6c-20.4.04-40.79-.06-61.18.05m64.67-.05v44.6h61.15l-.01-44.6h-61.14M278.4 352.7l-.05 44.96c14.22-4.01 28.63-7.37 43.14-10.14l-.01-45c-14.51 2.7-28.88 6.18-43.08 10.18m245.11-10.18v44.99c14.51 2.78 28.92 6.13 43.14 10.15l-.05-44.97c-14.21-3.99-28.57-7.47-43.09-10.17M59.25 353.25c-6.39 2.41-7.93 11.84-2.62 16.17 4.79 4.8 13.83 2.37 15.74-4.09 3.13-7.48-5.88-15.86-13.12-12.08m718.13.23c-6.88 3.14-7.05 14.01-.18 17.27 6.79 4.31 16.33-3.02 14.13-10.66-1.06-6.07-8.59-9.7-13.95-6.61m-713.81 27.8a51.57 51.57 0 0 0-.01-6.46c-1.61 1.43-1.61 5.07.01 6.46m717.84-6.48a44.48 44.48 0 0 0 .01 6.53c1.56-1.5 1.62-5.09-.01-6.53m-398.03 8.4l-.01 38.78h78.26l-.01-38.78c-26.04-1.76-52.2-1.77-78.24 0m-319.72 1.18l7.43 14.87 7.46-14.9c-4.97.01-9.93-.01-14.89.03m20.38-.02c2.52 4.94 4.86 9.97 7.53 14.83l7.41-14.83c-4.98-.01-9.96-.01-14.94 0m20.29-.1c2.64 4.95 5.06 10.02 7.61 15.02l7.41-14.93c-5.01 0-10.01.05-15.02-.09m20.57.1c2.53 4.92 4.79 9.99 7.56 14.79 1.14-2.41 2.54-4.71 3.44-7.23.28-2.51.11-5.05.11-7.56-3.7-.01-7.4-.01-11.11 0m14.63.01l.01 57.75h36.49v-35.18c.07-9.2 5.38-17.9 13.19-22.63l-49.69.06m76.16-.04c8.45 5.07 13.71 14.8 13.15 24.66l-.01 33.13h36.5l.03-57.75c-16.56-.05-33.12.03-49.67-.04m129.97 2.8l.38 3.36c6.17 1.82 10.71 8.15 9.61 14.63-.6 4.98-4.36 8.93-8.89 10.76l-.01 6.1 33.15.02-.01-38.54c-11.44.87-22.87 2.04-34.23 3.67m119.44-3.67v38.52h33.18l-.01-6.12c-5.59-2.12-9.74-7.86-8.96-13.96.45-5.41 4.61-9.83 9.67-11.43l.39-3.34c-11.38-1.61-22.82-2.8-34.27-3.67m114.54.91l.04 57.75h36.48l.02-35.2c.04-9.2 5.36-17.88 13.16-22.62l-49.7.07m76.13-.07c7.83 4.75 13.16 13.47 13.19 22.7l.01 35.12h36.49v-57.75c-16.56-.06-33.13.06-49.69-.07m53.22.06c0 2.56-.19 5.14.14 7.69.93 2.51 2.32 4.82 3.51 7.22l7.45-14.92-11.1.01m16.67-.02c2.35 5.04 4.93 9.96 7.4 14.95l7.47-14.95h-14.87m20.35.02l7.5 14.92 7.44-14.92c-4.98-.01-9.96-.01-14.94 0m20.44-.01l7.46 14.94 7.46-14.93c-4.98-.01-9.95 0-14.92-.01m-685.18 2.04l-8.32 16.65 8.34 16.68 8.35-16.68-8.37-16.65m20.38.04l-8.27 16.61 8.38 16.61 8.31-16.62c-2.83-5.52-5.44-11.16-8.42-16.6m12.16 16.6l8.35 16.7 8.34-16.7-8.34-16.67-8.35 16.67m608.86-16.35l-8.17 16.36 8.34 16.68 8.34-16.68c-2.89-5.43-5.18-11.19-8.51-16.36m20.56-.26l-8.31 16.62 8.34 16.68 8.35-16.68-8.38-16.62m20.47-.06l-8.35 16.67 8.29 16.63c2.92-5.48 5.59-11.08 8.4-16.62l-8.34-16.68m-258.33 1.65l.28 2.43c4.77 1.59 8.85 5.52 9.58 10.64 1.24 6.31-2.94 12.62-8.83 14.76.11 3.35-.65 6.94.99 10.05l5.86 13.81c10.08 1.76 20.11 3.8 30.09 6.08v-50.54c-12.56-2.9-25.23-5.29-37.97-7.23m-203.7 7.23l-.01 50.58c9.97-2.27 20-4.29 30.07-6.07 2.2-5.44 4.69-10.75 6.76-16.24.36-2.52.12-5.09.16-7.62-6.29-2.27-10.55-9.33-8.61-15.92 1.04-4.67 4.97-7.81 9.19-9.56l.57-2.37c-12.81 1.81-25.52 4.34-38.13 7.2m-239.06-5.36l.01 26.33 6.59-13.16-6.6-13.17m713.17 13.16l6.6 13.2v-26.37l-6.6 13.17m-441.81-3l-.87.15.06 1.75c-1.37 6.09 4.81 12.25 10.89 10.9a103.38 103.38 0 0 0 1.76.05l.14-.87c1.86.37 3.21-1.53 4.39-2.69 4.14-4.86 1.79-13.38-4.38-15.22-4.53-1.91-11.4.88-11.99 5.93m159.45-.67c-2.28 4.61.36 11.93 5.65 12.64l.13.87.97.43.79-.46c3.68.75 7.51-1.18 9.58-4.21.02-.03.06-.1.08-.13 2.52-4.09 1.67-9.94-2.21-12.87-4.66-4.05-12.83-2.06-14.99 3.73m-224.58 4.81v50.23c9.71-2.81 19.48-5.42 29.32-7.76l.01-50.58c-9.86 2.39-19.65 5.08-29.33 8.11m277.99-8.11l.06 50.59c9.84 2.26 19.57 4.95 29.27 7.74v-50.23c-9.68-3.02-19.47-5.7-29.33-8.1m-411.06 3.54l-1.52 3.46 1.73 3.47c.04-2.31.01-4.63-.21-6.93m573.32-.07c-.08 2.24-.12 4.48-.08 6.73l1.77-3.2-1.69-3.53M62.75 423.56l8.34 16.58 8.34-16.76-8.34-16.58-8.34 16.76m28.74-16.78l-8.32 16.54c2.66 5.67 5.57 11.21 8.33 16.83l8.35-16.53c-2.67-5.67-5.55-11.24-8.36-16.84m32.53 16.6l8.38 16.72c1.14-2.41 2.52-4.71 3.47-7.21.39-5.28.03-10.6.18-15.89.43-3.79-2.23-6.82-3.61-10.11-3 5.39-5.53 11.03-8.42 16.49M708.95 417c.14 5.29-.22 10.62.18 15.9.94 2.48 2.3 4.77 3.44 7.17 2.96-5.47 5.63-11.1 8.4-16.67l-8.31-16.56c-1.52 3.26-4.13 6.34-3.71 10.16m44.5-10.2c-2.61 5.67-5.93 11.09-8.14 16.89 2.59 5.54 5.47 10.96 8.16 16.46l8.36-16.82c-2.89-5.46-5.51-11.06-8.38-16.53m12.12 16.52c2.67 5.64 5.51 11.21 8.34 16.77l8.34-16.53c-2.7-5.64-5.56-11.19-8.34-16.78l-8.34 16.54m-660.72-2.43c-.43 1.19-1.73 2.52-.66 3.78l7.75 15.48 8.34-16.73-8.34-16.64-7.09 14.11m619.86 2.55l8.35 16.7 8.15-16.45c-2.17-5.81-5.53-11.24-8.15-16.9l-8.35 16.65m-382.33-7.62c-.25 2.17-.26 4.36-.18 6.55 1.81-1.35 1.56-4.89.18-6.55m160.41 6.57c-.05-2.23.67-4.78-.79-6.7.08 2.16-1.23 5.16.79 6.7m-159.76 3.08c2.18 5.08 4.2 10.24 6.54 15.25l6.42-15.26c-4.33-.01-8.65 0-12.96.01m18.24-.01l6.42 15.25c2.35-5.01 4.37-10.16 6.54-15.25-4.32-.01-8.64 0-12.96 0m18.25.01l6.14 14.47.72-.12c2.15-4.71 4-9.56 6.1-14.29-4.32-.12-8.64-.07-12.96-.06m18.24-.01l6.45 15.25c2.3-5.03 4.34-10.17 6.53-15.25h-12.98m18.24 0l6.48 15.37 6.5-15.37H416m18.24 0l6.51 15.38 6.47-15.38h-12.98m36.52.01l6.44 15.24c2.28-5.03 4.34-10.16 6.51-15.25-4.32 0-8.63-.01-12.95.01m18.23-.01l6.51 15.44c2.07-5.19 4.32-10.29 6.46-15.44h-12.97m-36.49.01l6.48 15.34 6.49-15.34a1401.85 1401.85 0 0 0-12.97 0M81.34 426.9c-2.34 5.14-5.01 10.13-7.48 15.22h14.88c-2.43-5.09-5.22-10.01-7.4-15.22m12.93 15.22h14.89l-7.46-15.11c-2.29 5.12-4.98 10.06-7.43 15.11m27.89-14.9l-7.45 14.89 14.89.01-7.44-14.9m265.74 18.02c2.39 5.67 4.65 11.41 7.27 16.98l7.18-17-7.21-16.98-7.24 17m61.94-17.01l-7.21 17.05 7.21 17.01c2.33-5.21 4.5-10.48 6.71-15.74.79-1.2-.02-2.46-.43-3.6l-6.28-14.72m272.93-.92l-7.38 14.81h14.9c-2.51-4.94-4.84-9.97-7.52-14.81m20.55-.44c-2.33 5.16-5.03 10.15-7.49 15.25h14.89c-2.44-5.1-5.26-10.02-7.4-15.25m12.93 15.25h14.88l-7.43-14.92-7.45 14.92m-415.9-13.85l-7.19 17.04 7.21 17.06 7.24-17.1-7.26-17m11.05 17l7.25 17.08 7.21-17.1-7.25-17.26c-2.24 5.83-4.81 11.52-7.21 17.28m25.43-16.93l-7.18 16.91 7.23 17.12 7.22-17.18c-2.51-5.58-4.67-11.31-7.27-16.85m36.54-.31c-2.31 5.79-4.8 11.5-7.23 17.23 2.41 5.68 4.67 11.44 7.3 17.03l7.15-17.02-7.22-17.24m18.25.17l-7.23 17.09 7.21 17.11 7.24-17.11-7.22-17.09m29.26 17.04c2.4 5.66 4.6 11.41 7.28 16.94l7.17-16.92-7.23-17.09-7.22 17.07m18.24.06c2.45 5.65 4.66 11.41 7.31 16.98l7.15-16.99-7.23-17.1-7.23 17.11m25.48-17.1l-7.23 17.08 7.13 16.93c2.72-5.51 4.86-11.29 7.33-16.91l-7.23-17.1m-441.98 2.56v11.36h5.7l-5.7-11.36m714.06 11.35l5.65.04.04-11.38-5.69 11.34m-641.43-.8c.57.55.57.55 0 0m573.97-.05c.61.5.61.5 0 0m-440.39 16.81l.01 50.21c20.11-5.86 40.51-10.67 61.13-14.35v-9.83h-16.94l17.05-40.5c-20.66 3.69-41.11 8.53-61.25 14.47m246.06-14.52l17.12 40.55h-16.98v9.78c20.62 3.66 41.03 8.51 61.13 14.39l.01-50.2c-20.14-5.97-40.6-10.84-61.28-14.52M67.2 445.64l.01 57.75h68.81l.01-57.76c-22.95 0-45.89-.02-68.83.01m72.33-.01v57.77l36.49-.01v-57.76c-12.16-.01-24.33-.01-36.49 0m89.3 0l.01 57.76h36.49v-57.76c-12.17-.01-24.33-.01-36.5 0m350.85 0l.01 57.76h36.47v-57.76c-12.16-.01-24.32-.01-36.48 0m89.29 0v57.76l36.49.01v-57.77c-12.16-.01-24.32-.01-36.49 0m40 0v57.76h68.82v-57.75l-68.82-.01m-384.94 21.28l5.77 13.66 2.88.06 5.81-13.74-7.21-17.06-7.25 17.08m25.46-17.12l-7.21 17.12 5.83 13.7 2.8.01 5.83-13.68-7.25-17.15m18.25.04l-7.21 17.08 5.81 13.72 2.88-.06 5.77-13.67-7.25-17.07m11.04 17.07c2 4.52 3.66 9.21 5.9 13.63l2.73.16 5.81-13.79-7.17-16.95c-2.61 5.57-4.83 11.3-7.27 16.95m18.24.01l5.76 13.65 2.88.07 5.81-13.73-7.21-17.08-7.24 17.09m25.46-17.11l-6.76 16.04c-.69 1.01-.01 2.07.35 3.06l5.04 11.73 2.79-.02 5.82-13.71-7.24-17.1m18.22.06l-7.19 17.05 5.8 13.72 2.89-.06 5.77-13.67-7.27-17.04m11.06 17.03l5.83 13.82 2.75-.21c2.19-4.42 3.86-9.08 5.86-13.59l-7.22-17.1-7.22 17.08m18.24.03l5.77 13.66 2.88.04 5.81-13.71-7.21-17.08-7.25 17.09m25.46-17.11l-7.22 17.12 5.83 13.69 2.78.01 5.86-13.74-7.25-17.08m18.23.01l-7.2 17.06 5.81 13.76 2.91-.1 5.74-13.64-7.26-17.08m-195.44 30.79h7.79l-3.82-8.93c-1.53 2.88-2.72 5.92-3.97 8.93m18.24 0l7.76-.01-3.86-9.21-3.9 9.22m22.12-9.2l-3.87 9.2 7.8-.05-3.93-9.15m18.21.23c-1.33 2.96-2.58 5.97-3.83 8.97h7.78c-1.25-3.02-2.47-6.06-3.95-8.97m14.41 8.96l7.79.01-3.9-9.13-3.89 9.12m18.25.01l7.78-.01-3.88-9.2-3.9 9.21m22.12-9.21l-3.87 9.2 7.76.01-3.89-9.21m18.19.24c-1.33 2.97-2.57 5.97-3.82 8.97h7.77c-1.25-3.02-2.46-6.06-3.95-8.97m14.42 8.97H472l-3.8-8.89c-1.6 2.84-2.73 5.89-3.99 8.89m18.25 0l7.78-.01-3.88-9.2-3.9 9.21m18.26-.01l7.75.01-3.82-9.13c-1.42 2.99-2.68 6.06-3.93 9.12m22.05-8.96c-1.33 2.96-2.57 5.97-3.82 8.97h7.79c-1.25-3.03-2.46-6.07-3.97-8.97m-189.31 12.47v39.5h178.07l.01-39.5c-59.36-.01-118.72-.01-178.08 0m-64.62 27.82l-.06 58.45c2.68 1.78 5.51 3.33 8.39 4.78l.01-45.21c16.13 6.13 33.22 8.99 50.13 12.05l-.01 40.2 11.86.02v-55.11h-9.19v-29.62c-20.62 3.68-41.03 8.54-61.13 14.44m246.19-14.49v29.67h-9.2l.01 55.12 11.81.02.03-40.24c16.92-3.06 34-5.93 50.14-12.05l.01 45.2c2.87-1.44 5.69-3 8.39-4.76l-.06-58.47c-20.09-5.94-40.5-10.82-61.13-14.49M85.85 506.9l50.17 50.19c-.17-5.57.36-11.21-.24-16.74l-31.43-31.57c-.96-.83-1.83-2.18-3.31-1.87-5.06-.07-10.12.01-15.19-.01m21.52 0l28.65 28.68v-28.7c-9.55 0-19.1-.04-28.65.02m32.16 0l-.01 57.76 28.87-.05-.04-57.71c-9.61-.01-19.21-.01-28.82 0m32.33 0l.06 57.79 61.07-.02.01-57.77c-20.38 0-40.76-.01-61.14 0m64.65 0l-.01 57.76 28.84-.01-.01-57.75c-9.61-.01-19.22-.01-28.82 0m343.18 0v57.75h28.81l-.01-57.75c-9.6-.01-19.2-.01-28.8 0m32.31 0v57.76l61.17-.08-.03-57.68c-20.38-.01-40.76 0-61.14 0m64.65-.01l-.01 57.76h28.83l-.01-57.76c-9.6 0-19.21-.01-28.81 0m32.31-.01l.01 28.69 28.63-28.67-28.64-.02m33.35.41l-33.29 33.11c-.11 5.56-.04 11.12-.05 16.68l50.17-50.18c-5.58.26-11.42-.56-16.83.39m-399.64 19.82v48.87l159.66.01v-48.88H342.67m-61.99 7.81v41.94c13.44 6.49 28.65 5.35 43.13 5.36v-37.31c-14.52-2.61-29.13-5.2-43.13-9.99m240.5 10v37.31c14.48-.02 29.7 1.13 43.14-5.38l-.01-41.92c-14 4.79-28.61 7.37-43.13 9.99m-381.67 23.24v57.78l61.2-.01v-57.77h-61.2m64.65 0v57.78h61.17v-57.78h-61.17m375.54 0l-.01 57.78h61.15v-57.78H579.7m64.59.01v57.76l61.19.01v-57.78l-61.19.01m-375.45 6.45l-.01 58.21c9.03 5.48 18.84 10.09 29.45 11.27v-58.84c-10.54-1.04-20.39-5.34-29.44-10.64m277.87 10.65v58.83c10.61-1.16 20.43-5.8 29.46-11.27v-58.21c-9.06 5.3-18.91 9.61-29.46 10.65m-204.04-5.76l-.02 241.99c7.75 1.84 15.67 2.44 23.56 3.42l.02-196.96c.29-21.71 15.92-41.28 36.06-48.46-19.87.01-39.75-.01-59.62.01m76.37-.24l-.07 25.37c-6.31-.01-12.63-.06-18.94.04-.32-6.84-.01-13.68-.19-20.52-2.53 1.16-4.98 2.48-7.34 3.93l-.03 16.53c-5.37.22-10.83-.43-16.13.3-1.48 2.15-2.46 4.58-3.52 6.95 6.55.16 13.1.04 19.65.08v22.24l-22.87.01c-.09 2.44-.11 4.88-.13 7.33 7.66.3 15.33.06 22.99.13l-.03 26.58 3.88 3.81c1.16-1.33 2.69-2.42 3.49-4 .23-8.79.01-17.59.09-26.38H419l-.02 26.96c1.05.98 2.1 1.98 3.26 2.86l.47.04c1.16-.9 2.23-1.9 3.3-2.88l-.01-26.98h19.1l.09 26.43c.86 1.54 2.32 2.65 3.52 3.95 1.31-1.27 2.59-2.57 3.86-3.88l-.04-26.5c7.67-.09 15.35.19 23.02-.16-.05-2.46-.07-4.9-.22-7.34l-22.81.02v-22.24l19.66-.08c-1.07-2.39-2.07-4.83-3.55-7-5.34-.6-10.75-.07-16.11-.25l-.03-16.53c-2.37-1.47-4.82-2.79-7.37-3.89l-.05 20.43c-6.35-.01-12.7-.02-19.05.01l-.05-25.36-6.93-.01m23.65.22c20.14 7.18 35.8 26.75 36.06 48.47l.03 197.03c7.87-1.01 15.78-1.59 23.54-3.36l.01-242.12c-19.88-.03-39.76.01-59.64-.02m-140.91 6.08v58.82c12.46.35 24.94.15 37.41.12l-.03-58.79c-12.46-.09-24.92.18-37.38-.15m204.06.16l-.03 58.79 37.41-.13-.01-58.82c-12.45.33-24.92.07-37.37.16m-366.31 43.72v57.75h28.82l.01-57.75c-9.61-.02-19.22-.02-28.83 0m32.31.04l.02 57.71H233l-.02-57.77c-20.38.05-40.76-.07-61.14.06m64.66-.05l.01 57.76h28.82v-57.75l-28.83-.01m343.19 0l-.01 57.76h28.81v-57.76a6912.01 6912.01 0 0 0-28.8 0m32.34-.03l-.04 57.79h61.15l-.07-57.79h-61.04m64.61.03l.01 57.76h28.81l.01-57.76c-9.61-.01-19.22-.02-28.83 0m-407.8 7.49l-.01 58.27a133.09 133.09 0 0 0 8.33 4.66l-.05-58.53c-2.83-1.33-5.58-2.82-8.27-4.4m299.04 4.4l-.02 58.53a135 135 0 0 0 8.31-4.67l-.01-58.26c-2.7 1.58-5.45 3.07-8.28 4.4m-287.23 1.75l.01 58.44c13.43 6.55 28.67 5.37 43.16 5.41v-58.88c-14.5.03-29.54.93-43.17-4.97m240.53 4.97v58.88c14.49-.04 29.73 1.14 43.16-5.42v-58.47c-13.6 6-28.68 5.01-43.16 5.01m-193.87 0v58.88h11.85v-58.88a2340.38 2340.38 0 0 0-11.85 0m178.52.01v58.87h11.85v-58.88c-3.95-.01-7.9 0-11.85.01m-366.32 42.65v20.06c4.39 4.86 9.27 9.26 13.46 14.3 7.94 7.76 16.36 15.01 24.95 22.05 1.2.86 2.36 2.19 4.02 1.96h18.77l-.04-58.39-61.16.02m64.65 0v58.37h61.17v-58.37h-61.17m375.51-.01l-.01 58.38 61.18-.01v-58.35l-61.17-.02m64.62 58.37c6.79-.17 13.64.36 20.39-.25 9.56-7.35 18.6-15.41 27.29-23.78 4.19-5.03 9.03-9.47 13.48-14.27l.03-20.07c-20.38-.03-40.76.06-61.14-.02l-.05 58.39m-375.46-49.78v58.85c9.03 5.46 18.84 10.09 29.45 11.25l.01-59.42c-10.54-1.1-20.4-5.37-29.46-10.68m277.88 10.69v59.42c10.61-1.17 20.42-5.8 29.46-11.26v-58.85c-9.06 5.31-18.92 9.58-29.46 10.69m-244.93.27l-.05 59.36c12.46.56 24.96.11 37.43.25l.02-59.41c-12.46-.18-24.94.16-37.4-.2m204.02.24l.03 59.38c12.47-.13 24.95.27 37.42-.23v-59.31c-12.48.22-24.97-.05-37.45.16m-320.82 42.09c10.19 7.73 20.78 14.96 31.73 21.57 5.9 1.76 10.78 5.67 16.28 8.33l-.03-29.92-47.98.02m51.53.01v31.76c9.42 4.88 19.02 9.44 28.83 13.52l-.01-45.28c-9.61-.01-19.22-.01-28.82 0m343.16 0l.04 45.36c9.75-4.17 19.38-8.66 28.78-13.58v-31.78c-9.61-.01-19.22-.01-28.82 0m32.33 0v29.91c5.49-2.65 10.34-6.58 16.23-8.33 10.98-6.6 21.53-13.92 31.79-21.59l-48.02.01m-343.15 9.65l-.03 37.08c2.76 1.15 5.54 2.25 8.34 3.3l.02-35.89c-2.82-1.42-5.6-2.91-8.33-4.49m298.97 4.48l.04 35.97c2.79-1.06 5.56-2.17 8.32-3.32l-.03-37.13c-2.73 1.57-5.51 3.07-8.33 4.48m-287.15 1.58l.01 35.57c3.94 2.08 8.18 3.48 12.41 4.83 10.19 3.07 20.33 6.37 30.72 8.77l.01-44.12c-14.47-.03-29.58 1.04-43.15-5.05m240.51 5.06l-.01 44.18c6.34-1.55 12.67-3.15 18.88-5.16 8.14-2.63 16.59-4.53 24.26-8.43l.02-35.65c-13.57 6.09-28.68 5.03-43.15 5.06m-193.87-.01l-.01 44.93c3.94.94 7.89 1.79 11.86 2.58l-.01-47.52-11.84.01m178.49.08l.03 47.52 11.84-2.55.01-45.04c-3.96-.01-7.93-.06-11.88.07z"/><path d="M420.37 32.19c2.49-2.27 5.36.59 6.91 2.57 4.21 5.92 4.38 13.52 5.16 20.48 2-7.19 4.97-15.67 12.9-18.06 6.71 6.04 5.81 15.96 3.83 23.89 5.53-7.13 11.93-16.09 21.93-16.19 2.67 4.59 1.82 10.19-.31 14.81-5.2 11.7-14.29 20.98-22.61 30.48-5.58 8.97-6.43 20.26-4.63 30.46.54.97.18 3.85 1.92 3.15 5.55-7.84 10.78-15.93 16.28-23.82 1-1.54 2.21-3.05 2.62-4.88.16-3.37-.93-6.68-.63-10.05.2-2.32 1.62-4.25 2.72-6.21 2.39 1.99 5.69 4.19 5.5 7.68l-.01 2.39c.88-.25 1.6-.76 2.16-1.52 2.36-2.74 6.17-3.65 9.61-2.81.3 4-1.47 7.6-3.7 10.77 1.88.36 3.82.5 5.64 1.14 1.73 1.01 2.32 3.05 3.23 4.7-4.61 5.08-11.17.59-16.7 1.8-7.75 11.27-15.19 22.79-22.51 34.36 6.49-3.54 11.81-8.74 17.78-13.01 1.8-1.08 3.92-2.8 6.13-1.89 2.14.93 1.92 3.65 1.84 5.59-.74 8.03-.98 16.14.09 24.15 1.03-11.54 1.12-24.44 8.72-33.91 2.57-3.77 9.05-4.41 10.82.43.06 2.88.04 5.75.01 8.63-.25 4.83-.69 9.66-.35 14.51 1.11-1.7 1.33-3.75 1.81-5.68 2.4-11.54 7.25-22.71 14.77-31.85 3.26-3.63 7.52-7.73 12.81-7.18 3.54.72 5.03 4.66 4.79 7.92-.49 8.17-4.58 15.51-6.35 23.4-1.77 6.39-2.4 13-2.65 19.6-1.04 11.28-.99 22.77 1.56 33.87 3.37 15.54 8.06 31.14 7.3 47.21-.53 11-4.39 22.34-12.58 30-6.09 5.69-15.26 7.11-23.06 4.57-11.7-3.67-20.68-13.59-25.01-24.84-3.93-9.73-1.64-21.35-7.65-30.34-3.27 5.76-6 11.81-9.35 17.53-4.88 9.17-10.22 18.53-11.4 29.04-.81 6.51.96 13.17 4.51 18.65 3.46 5.46 3.91 12.58.84 18.31-2.36 5.92-8.07 9.42-11.09 14.89l-11.51 19.41c-4.64-7.62-8.81-15.54-13.82-22.91-5.19-5.33-10.55-11.54-10.81-19.39-.5-7.51 5.88-12.85 7-19.96 2.57-12.35-3.63-24.11-9.13-34.73-3.93-6.84-7.38-13.94-11.17-20.84-3.91 5.66-4.19 12.8-5.19 19.37-.95 12.26-7.79 23.7-17.63 30.93-6.8 4.79-15.55 7.51-23.79 5.32-6.93-1.85-12.28-7.25-15.66-13.39-5.38-9.22-6.72-20.25-5.92-30.75.98-13.92 5-27.36 7.79-40.97 2.15-10.88 1.78-22.04.84-33.03-.21-9.66-2.53-19.14-5.85-28.18-1.61-5.3-4.01-10.89-2.56-16.49.81-3.45 4.85-5.24 8.05-3.87 7.05 2.75 11.47 9.45 15.2 15.69 4.9 8.15 7.47 17.37 9.59 26.56l1.04.57c.08-6.11-.59-12.19-.9-18.28-.18-2.93 1.42-6.23 4.51-6.84 3.96-.4 6.95 2.9 8.81 5.98 5.43 9.39 5.72 20.57 6.68 31.1 1.02-8.36.7-16.79-.02-25.16-.38-2.25.83-5.34 3.57-4.9 3.07.75 5.5 2.93 7.97 4.78 4.55 3.73 9.1 7.5 14.27 10.36l-22.51-34.32c-3.88-1.15-7.82 1.14-11.76.74-1.94-.21-3.44-1.53-4.96-2.58.92-1.65 1.52-3.7 3.27-4.7 1.79-.62 3.71-.75 5.57-1.09-2.17-3.22-3.99-6.8-3.66-10.81 3.46-.82 7.27.1 9.64 2.84a3.7 3.7 0 0 0 2.16 1.49l-.04-2.42c-.16-3.47 3.1-5.67 5.5-7.64 1.49 2.46 3.13 5.11 2.76 8.12-.02 3.65-1.88 7.77.61 11l16.19 23.91c.57.99 1.49 1.69 2.33 2.44 3.08-10.27 2.46-21.87-2.16-31.6-1.58-3.53-4.72-5.96-7.13-8.88-6.78-7.84-13.72-15.9-17.55-25.66-1.72-4.25-2.05-9.22.34-13.28 9.98.15 16.38 9.07 21.9 16.21-1.98-7.93-2.92-17.92 3.88-23.91 7.96 2.48 10.82 11.01 12.95 18.2.71-7.99.82-17.77 7.71-23.18m1.84 2.54c-5.06 5.01-5.55 12.51-6.02 19.2-.4 11.05.6 22.11-.14 33.15-1.34-4.36-2.5-8.77-3.55-13.21-1.77-8.78-2.46-17.95-6.27-26.18-1.18-2.69-3.25-4.83-5.58-6.57-5.39 7.71-1.86 17.52.55 25.66 2.16 6.41 3.78 12.99 5.51 19.53-5.96-10.22-11.23-21.02-19.09-29.97-3.22-3.51-6.93-7.19-11.87-7.87-.65 4.23.57 8.43 2.55 12.14 5.49 10.41 13.81 18.88 21.46 27.69 5.47 8.8 6.62 19.57 5.7 29.72-2.17 13.22-10.93 24.03-14.61 36.75-5.05 16.24-5.17 33.56-3.28 50.33.12.9.35 1.76.71 2.6 6.4 14.45 16.37 27.45 19.9 43.08 2.01 8.77.19 18.18-4.95 25.56 4.77 3.4 4.67 11.49.14 15.06 2.55 4.97 7.38 8.17 10.15 12.97l9 15.18 8.91-15.1c2.75-4.88 7.71-8.05 10.19-13.13-4.57-3.5-4.59-11.62.14-14.98-4.98-7.19-6.9-16.3-5.08-24.88 3.37-16.4 14.23-29.77 20.47-45.02 2.42-17.73 2.07-36.21-3.53-53.34-3.89-11.99-11.99-22.4-14.07-35-.95-10.16.2-20.95 5.67-29.79 6.03-7 12.53-13.66 17.66-21.39 3.66-5.4 7.39-11.63 6.37-18.45-4.72.63-8.33 4.06-11.44 7.39-8.11 8.99-13.39 20-19.49 30.35 1.99-8.2 4.44-16.26 6.93-24.31 1.88-6.7 3.51-14.68-.88-20.77-7.06 4.85-8.29 14.04-9.95 21.79-1.23 8.19-2.98 16.29-5.46 24.2-.99-12.98.85-26.02-.67-38.96-.68-4.87-1.68-10.5-6.08-13.43m-47.11 56.4c-.51 1.68-2.7 1.84-3.84.78-2.12-1.53-3.99-3.45-6.5-4.34 1.06 2.73 2.69 5.17 4.07 7.74-1.91 3.01-6.06 2.45-8.25 4.98 4.84.23 10.4-2.67 14.8.35 7.33 10.53 14.13 21.46 21.22 32.18.44-1.72 2.81-3.64 1.18-5.35l-19.04-28.08c-3.25-4.68-.27-10.32-1.04-15.44-1.59 2.1-1.68 4.8-2.6 7.18m92.2-7.17c-.79 5.13 2.22 10.78-1.06 15.46l-19.83 29.24 1.95 4.18 21.31-32.25c4.4-2.88 9.86-.16 14.67-.26-2.03-2.66-6.32-1.96-8.17-5.02 1.37-2.57 3-5 4.06-7.73-3.55.82-5.45 5.27-9.25 4.89-2.37-2.24-1.61-6.03-3.68-8.51m-147.37 18.11c-1.25 6.23 1.91 12.19 3.62 18.02 4.9 13.06 5.15 27.15 5.63 40.91.26 11.56-2.37 22.87-5.12 34.02-3.33 15.07-6.86 31.07-2.2 46.26 2.6 7.68 7.16 15.66 15.04 18.86 7.5 2.95 15.99.53 22.41-3.87 7.78-5.5 13.43-13.91 15.72-23.15 1.5-7.74 1.46-15.92 4.77-23.22.83-2.04 2.53-3.48 4.21-4.81-2.44-21.91-1.25-45.11 9.07-65.02-7.36-4.1-13.16-10.39-20.35-14.73 2.28 16.95-.01 34.06-3.05 50.76-1-5.3-2.37-10.54-2.93-15.92-1.12-9.55-1.01-19.3-3.42-28.66-1.41-5.11-3.36-10.93-8.53-13.36-1.47 1.18-2.1 2.97-1.8 4.83.7 7.34 1.11 14.72.69 22.09-.49 10.15-2.67 20.1-4.35 30.09-1.87-18.71-1.63-38.36-10.07-55.65-3.46-6.69-7.33-13.76-13.85-17.92-1.6-1.03-4.71-2.04-5.49.47m195.26 3.08c-6.53 7.18-10.9 16.15-13.68 25.39-4.34 14.54-4.22 29.85-5.96 44.8-.96-7.77-2.92-15.39-3.63-23.2-1.21-9.67-.87-19.44.07-29.11.28-1.86-.3-3.66-1.75-4.86-4.19 1.82-6.26 6.15-7.66 10.23-3.31 10.06-3.09 20.77-4.27 31.19-.53 5.57-1.95 11.01-3 16.5-3.04-16.7-5.33-33.8-3.05-50.74-7.19 4.33-12.99 10.62-20.35 14.72 10.34 19.91 11.5 43.12 9.08 65.04 1.71 1.31 3.38 2.77 4.22 4.82 3.45 7.58 3.18 16.11 4.97 24.1 3.22 11.41 11.46 21.88 22.82 25.97 7.05 2.71 15.68 1.65 21.2-3.75 7.5-7.32 10.79-18.02 11.13-28.29.53-16.86-4.89-33.05-8.07-49.41-2.41-13.07-1.21-26.39-.2-39.53.86-10.11 4.83-19.52 7.64-29.16.52-2.91 1.78-6.94-.77-9.19-3.52-.66-6.4 2.27-8.74 4.48M402.36 287.92c1.11-2.6 1.04-5.47.08-8.1-1.47 2.49-1.38 5.56-.08 8.1m40.2-8.1c-.98 2.63-1.03 5.49.05 8.09 1.34-2.52 1.4-5.6-.05-8.09zM148.12 271l46.67.01v34.55l-46.67.01V271zm61.94 0l46.68.01v34.56c-15.56-.01-31.11-.01-46.67 0l-.01-34.57zm378.19.01l46.68-.01-.01 34.57c-15.56-.01-31.11 0-46.66-.01l-.01-34.55zm61.96 0l46.67-.01-.01 34.57c-15.55-.01-31.11-.01-46.66 0v-34.56zM78.28 457.23l46.68-.01v26.88H78.28v-26.87zm641.76 0h46.67v26.87h-46.67v-26.87zM357.71 537.5l52.79-.01-.01 26.83c-17.59-.01-35.18 0-52.78-.01V537.5zm76.79-.01l52.79.01-.01 26.81-52.78.01v-26.83zm-34.61 74.46H419v22.24h-19.11v-22.24zm26.11 0h19.1v22.24H426v-22.24z"/></g><path d="M30.32 415.05l.07-399.54 784.25.02.02 400.45c-1.33 44.85-7.4 89.71-19.86 132.87-16.53 58.11-45.26 113.11-85.86 158.05l-.06-144.58c9.83-8.98 18.9-18.77 28.42-28.06l24.87-24.95c1.1-1 2.17-2.37 3.84-2.24 4.99-.31 10.01.27 15-.33l.63.01c.73-20.18.05-40.42.33-60.62l3.97-.15-.01-.68-.1-70.47c4.18-1.86 7.89-5.27 8.75-9.93 1.63-6.67-2.94-13.59-9.39-15.45-1.48-10.87-1.78-21.89-3.67-32.7-.52 10.89-2.03 21.72-2.96 32.58-3.36 1.38-6.72 3.38-8.3 6.81-3.59 6.35-.45 15.43 6.49 17.9l.22 5.93-67.99.11-.01-43.26c6.29-.03 12.59.12 18.88-.15l.17-80.17c6.02-.32 12.06.33 18.06-.36l-.35-.58c-12.65-21.94-24.42-44.39-36.81-66.47-2.07-2.94-1.28-6.64-1.34-9.99 6.94-2.49 11.16-10.82 7.97-17.73-1.42-3.99-5.22-6.03-8.69-7.94-1.34-10.32-1.77-20.76-3.37-31.04-1.27 10.36-2.14 20.78-3.16 31.17-4.97 1.83-9.33 5.99-9.75 11.51-.84 6.15 3.36 11.86 8.96 14.03l.01 6.13c-37.98.01-75.96.02-113.94-.01l.02-6.09c7.23-2.54 11.38-11.47 7.65-18.42-1.47-3.7-5.2-5.34-8.34-7.28-1.39-10.8-1.99-21.71-3.46-32.51-.87 10.9-2.14 21.77-3.08 32.66-5.29 1.9-9.79 6.58-9.83 12.45-.4 5.9 3.81 10.98 9.05 13.15-.17 3.12.7 6.57-1.11 9.35l-37.55 67.99c5.99.17 12-.07 18 .17l.26 80.09c6.31.45 12.64.13 18.96.26l.03 63.51-5.19-1.61-.23-48.51-.77-.28c-16.42-4.89-33.14-8.76-50.01-11.78L520 386.9c-4.95-.87-9.91-1.74-14.9-2.39-1.03-8.9-1.96-17.81-2.55-26.74-1.35 8.57-1.89 17.24-2.79 25.87l-11.3-1.38-.09-48.57c-16.6-2.04-33.32-3.11-50.03-3.64l-.02 48.57c-10.55-.27-21.1-.26-31.65 0l-.01-48.58c-16.72.54-33.43 1.61-50.04 3.65l-.12 48.6c-3.71.35-7.41.81-11.09 1.43-1.2-8.62-1.53-17.34-2.9-25.94-.67 8.92-1.52 17.84-2.59 26.73-5.01.63-9.97 1.53-14.94 2.39l-.01-48.52c-16.86 3-33.57 6.89-49.99 11.77l-.79.28c-.41 16.17.06 32.35-.21 48.52l-5.19 1.6.02-63.54c5.76-.12 11.54.26 17.3-.12 1.59.12 2.07-1.55 1.9-2.81l.04-77.4c6.06-.24 12.13.11 18.19-.31l-.63-.89a44.2 44.2 0 0 1-2.03-3.08l-35.38-64.42c-1.46-2.68-.63-5.88-.81-8.79 5.23-2.21 9.44-7.26 9.04-13.18-.04-5.87-4.53-10.54-9.82-12.43l-3.11-32.68c-1.41 10.82-2.08 21.74-3.43 32.57-3.44 1.89-7.23 3.89-8.64 7.85-3.24 6.92.97 15.31 7.96 17.8l.01 6.11c-37.99.01-75.97.02-113.95-.01l.04-6.13c5.99-2.21 10.2-8.66 8.77-15.08-.8-5.09-5-8.66-9.58-10.44l-3.05-31.69c-1.64 10.48-2.27 21.1-3.37 31.65-4.57 1.85-8.81 5.39-9.6 10.51-1.43 6.43 2.82 12.83 8.78 15.09-.12 3.11.73 6.54-1.03 9.34l-30.88 56.14c-2.09 3.69-3.88 7.57-6.47 10.96l.39.75c5.83.37 11.69-.09 17.53.17l.19 80.19c6.28.25 12.57.09 18.86.14l-.01 43.24c-22.68-.05-45.36.14-68.04-.08l.28-5.95c6.85-2.46 9.99-11.4 6.52-17.71-1.55-3.51-4.96-5.59-8.38-6.98l-3.04-32.54c-1.73 10.81-2.16 21.79-3.57 32.64-5.05 1.61-9.18 6.01-9.65 11.42-.77 6.12 3.44 11.75 8.98 13.96l-.07 71.16 3.99.15.19 59.95c.25.18.75.52 1.01.7 5.2.73 10.47-.24 15.68.41 1.23.21 1.98 1.36 2.9 2.12l41.89 41.96c3.78 3.68 7.31 7.64 11.39 11.01l-.05 144.7c-24.9-27.62-45.47-59.06-61.28-92.7-29.27-62.11-42.44-130.87-44.45-199.23M420.37 32.19c-6.89 5.41-7 15.19-7.71 23.18-2.13-7.19-4.99-15.72-12.95-18.2-6.8 5.99-5.86 15.98-3.88 23.91-5.52-7.14-11.92-16.06-21.9-16.21-2.39 4.06-2.06 9.03-.34 13.28 3.83 9.76 10.77 17.82 17.55 25.66 2.41 2.92 5.55 5.35 7.13 8.88 4.62 9.73 5.24 21.33 2.16 31.6-.84-.75-1.76-1.45-2.33-2.44l-16.19-23.91c-2.49-3.23-.63-7.35-.61-11 .37-3.01-1.27-5.66-2.76-8.12-2.4 1.97-5.66 4.17-5.5 7.64l-2.12.93c-2.37-2.74-6.18-3.66-9.64-2.84-.33 4.01 1.49 7.59 3.66 10.81-1.86.34-3.78.47-5.57 1.09-1.75 1-2.35 3.05-3.27 4.7 1.52 1.05 3.02 2.37 4.96 2.58 3.94.4 7.88-1.89 11.76-.74 7.75 11.26 15.16 22.79 22.51 34.32-5.17-2.86-9.72-6.63-14.27-10.36-2.47-1.85-4.9-4.03-7.97-4.78-2.74-.44-3.95 2.65-3.57 4.9.72 8.37 1.04 16.8.02 25.16-.96-10.53-1.25-21.71-6.68-31.1-1.86-3.08-4.85-6.38-8.81-5.98-3.09.61-4.69 3.91-4.51 6.84.31 6.09.98 12.17.9 18.28l-1.04-.57c-2.12-9.19-4.69-18.41-9.59-26.56-3.73-6.24-8.15-12.94-15.2-15.69-3.2-1.37-7.24.42-8.05 3.87-1.45 5.6.95 11.19 2.56 16.49 3.32 9.04 5.64 18.52 5.85 28.18.94 10.99 1.31 22.15-.84 33.03-2.79 13.61-6.81 27.05-7.79 40.97-.8 10.5.54 21.53 5.92 30.75 3.38 6.14 8.73 11.54 15.66 13.39 8.24 2.19 16.99-.53 23.79-5.32 9.84-7.23 16.68-18.67 17.63-30.93 1-6.57 1.28-13.71 5.19-19.37 3.79 6.9 7.24 14 11.17 20.84 5.5 10.62 11.7 22.38 9.13 34.73-1.12 7.11-7.5 12.45-7 19.96.26 7.85 5.62 14.06 10.81 19.39 5.01 7.37 9.18 15.29 13.82 22.91l11.51-19.41c3.02-5.47 8.73-8.97 11.09-14.89 3.07-5.73 2.62-12.85-.84-18.31-3.55-5.48-5.32-12.14-4.51-18.65 1.18-10.51 6.52-19.87 11.4-29.04 3.35-5.72 6.08-11.77 9.35-17.53 6.01 8.99 3.72 20.61 7.65 30.34 4.33 11.25 13.31 21.17 25.01 24.84 7.8 2.54 16.97 1.12 23.06-4.57 8.19-7.66 12.05-19 12.58-30 .76-16.07-3.93-31.67-7.3-47.21-2.55-11.1-2.6-22.59-1.56-33.87.25-6.6.88-13.21 2.65-19.6 1.77-7.89 5.86-15.23 6.35-23.4.24-3.26-1.25-7.2-4.79-7.92-5.29-.55-9.55 3.55-12.81 7.18-7.52 9.14-12.37 20.31-14.77 31.85-.48 1.93-.7 3.98-1.81 5.68-.34-4.85.1-9.68.35-14.51 1.11-2.71 1.6-6.02-.01-8.63-1.77-4.84-8.25-4.2-10.82-.43-7.6 9.47-7.69 22.37-8.72 33.91-1.07-8.01-.83-16.12-.09-24.15.08-1.94.3-4.66-1.84-5.59-2.21-.91-4.33.81-6.13 1.89-5.97 4.27-11.29 9.47-17.78 13.01 7.32-11.57 14.76-23.09 22.51-34.36 5.53-1.21 12.09 3.28 16.7-1.8-.91-1.65-1.5-3.69-3.23-4.7-1.82-.64-3.76-.78-5.64-1.14 2.23-3.17 4-6.77 3.7-10.77-3.44-.84-7.25.07-9.61 2.81l-2.15-.87c.19-3.49-3.11-5.69-5.5-7.68-1.1 1.96-2.52 3.89-2.72 6.21-.3 3.37.79 6.68.63 10.05-.41 1.83-1.62 3.34-2.62 4.88l-16.28 23.82c-1.74.7-1.38-2.18-1.92-3.15-1.8-10.2-.95-21.49 4.63-30.46 8.32-9.5 17.41-18.78 22.61-30.48 2.13-4.62 2.98-10.22.31-14.81-10 .1-16.4 9.06-21.93 16.19 1.98-7.93 2.88-17.85-3.83-23.89-7.93 2.39-10.9 10.87-12.9 18.06-.78-6.96-.95-14.56-5.16-20.48-1.55-1.98-4.42-4.84-6.91-2.57zm-313 474.71l28.65-.02v28.7l-28.65-28.68zm601.59-.02l28.64.02-28.63 28.67-.01-28.69z" fill="#fb333e"/><path d="M370.92 87.39l2.12-.93.04 2.42a3.7 3.7 0 0 1-2.16-1.49zm101.04-.89l2.15.87c-.56.76-1.28 1.27-2.16 1.52l.01-2.39z" fill="#b7565b"/><path d="M495.06 118.69c1.61 2.61 1.12 5.92.01 8.63l-.01-8.63z" fill="#ab575b"/><path d="M138.2 157.32c6.22-2.39 13.75 3.01 12.88 9.76.19 7.53-9.8 11.93-15.48 7.22-6.11-4.2-4.54-14.83 2.6-16.98zm121.99-.02c6.22-2.35 13.7 3.06 12.84 9.79.15 7.51-9.78 11.91-15.47 7.22-6.16-4.19-4.57-14.9 2.63-17.01zm318.11.01c6.64-2.58 14.33 3.62 12.9 10.67-.65 7.43-10.77 10.94-16.04 5.84-5.52-4.47-3.64-14.35 3.14-16.51zm121.94-.02c5.53-2.05 12.31 1.77 12.89 7.76 1.13 5.82-4.17 11.82-10.14 11.07-6.06.09-10.49-6.51-8.85-12.2.8-3.02 3.17-5.55 6.1-6.63zM59.25 353.25c7.24-3.78 16.25 4.6 13.12 12.08-1.91 6.46-10.95 8.89-15.74 4.09-5.31-4.33-3.77-13.76 2.62-16.17zm718.13.23c5.36-3.09 12.89.54 13.95 6.61 2.2 7.64-7.34 14.97-14.13 10.66-6.87-3.26-6.7-14.13.18-17.27zm-443.41 46.56c.59-5.05 7.46-7.84 11.99-5.93 6.17 1.84 8.52 10.36 4.38 15.22-1.18 1.16-2.53 3.06-4.39 2.69l-1.9.82c-6.08 1.35-12.26-4.81-10.89-10.9l.81-1.9zm159.45-.67c2.16-5.79 10.33-7.78 14.99-3.73 3.88 2.93 4.73 8.78 2.21 12.87-.02.03-.06.1-.08.13-2.07 3.03-5.9 4.96-9.58 4.21l-1.89-.84c-5.29-.71-7.93-8.03-5.65-12.64zm-74.38 179.9l6.93.01.05 25.36 19.05-.01.05-20.43c2.55 1.1 5 2.42 7.37 3.89l.03 16.53c5.36.18 10.77-.35 16.11.25 1.48 2.17 2.48 4.61 3.55 7-6.55.16-13.11.04-19.66.08v22.24l22.81-.02c.15 2.44.17 4.88.22 7.34-7.67.35-15.35.07-23.02.16l.04 26.5-3.86 3.88c-1.2-1.3-2.66-2.41-3.52-3.95-.22-8.81-.01-17.62-.09-26.43-6.37-.01-12.73 0-19.1 0l.01 26.98c-1.07.98-2.14 1.98-3.3 2.88l-.47-.04c-1.16-.88-2.21-1.88-3.26-2.86l.02-26.96c-6.37 0-12.74-.01-19.11 0l-.09 26.38c-.8 1.58-2.33 2.67-3.49 4-1.33-1.24-2.61-2.53-3.88-3.81l.03-26.58c-7.66-.07-15.33.17-22.99-.13l.13-7.33 22.87-.01v-22.24c-6.55-.04-13.1.08-19.65-.08 1.06-2.37 2.04-4.8 3.52-6.95 5.3-.73 10.76-.08 16.13-.3l.03-16.53c2.36-1.45 4.81-2.77 7.34-3.93.18 6.84-.13 13.68.19 20.52l18.94-.04.07-25.37m-19.15 32.68v22.24H419v-22.24a6086.54 6086.54 0 0 0-19.11 0m26.11 0v22.24h19.1v-22.24a6080.17 6080.17 0 0 0-19.1 0z" fill="#fc0"/><path d="M99.45 256.32l-.39-.75c6.24.92 12.57.18 18.85.46l.03 79.96 18.12.01-.03.82c-6.29-.05-12.58.11-18.86-.14l-.19-80.19c-5.84-.26-11.7.2-17.53-.17z" fill="#b3565b"/><path d="M305.61 255.48l.63.89c-6.06.42-12.13.07-18.19.31l-.04 77.4c.17 1.26-.31 2.93-1.9 2.81-5.76.38-11.54 0-17.3.12l-.04-1 18.23.01.06-80c6.17-.36 12.46.64 18.55-.54z" fill="#c75258"/><path d="M538.96 256.52l.52-.88c6.12.79 12.31.14 18.46.39l.04 79.99 18.26.01-.06 1.01c-6.32-.13-12.65.19-18.96-.26-.56-26.68-.02-53.39-.26-80.09-6-.24-12.01 0-18-.17z" fill="#c85258"/><path d="M745.73 255.56l.35.58c-6 .69-12.04.04-18.06.36l-.17 80.17c-6.29.27-12.59.12-18.88.15V336l18.09-.01.05-79.97c6.19-.28 12.46.5 18.62-.46z" fill="#b4565b"/><path d="M274.19 350.43l.79-.28-.03 48.78-.97.02.21-48.52zm295.83-.28l.77.28c.46 16.16-.05 32.34.23 48.51l-.96.05-.04-48.84z" fill="#d94851"/><path d="M67.05 380.96c.36-2.23-1.17-5.57 1.21-6.93l-.28 5.95 68.04.08.08.93c-23.02 0-46.03.05-69.05-.03z" fill="#d84951"/><path d="M776.75 374.04c2.33 1.38.79 4.67 1.17 6.92l-69.02.03.08-.91 67.99-.11-.22-5.93z" fill="#d64b52"/><path d="M333.1 400.19l.87-.15-.81 1.9-.06-1.75z" fill="#d7b83f"/><path d="M510.54 408.64l.08-.13-.08.13z" fill="#ab9648"/><path d="M344.05 412.84l1.9-.82-.14.87-1.76-.05z" fill="#d3b543"/><path d="M499.07 412.01l1.89.84-.79.46-.97-.43-.13-.87z" fill="#cdb043"/><path d="M135.25 441.31c.57.55.57.55 0 0z" fill="#a2a1a1"/><path d="M709.22 441.26c.61.5.61.5 0 0z" fill="#a09f9f"/><path d="M59.06 445.29l4.84.14.4 60.9-.06.45-1.01-.7c-.43-19.97-.01-39.97-.19-59.95l-3.99-.15.01-.69z" fill="#b7555b"/><path d="M781.13 445.4l4.8-.1.01.68-3.97.15c-.28 20.2.4 40.44-.33 60.62l-.63-.01-.27-.32c.69-20.32-.09-40.69.39-61.02z" fill="#b8555b"/><path d="M64.3 506.33l.4-.72c5.05 2.85 11.41-.08 16.77 1.64l37.68 37.56c5.57 5.9 11.84 11.17 16.95 17.47-4.08-3.37-7.61-7.33-11.39-11.01l-41.89-41.96c-.92-.76-1.67-1.91-2.9-2.12-5.21-.65-10.48.32-15.68-.41l.06-.45z" fill="#af434a"/><path d="M763.84 507.02c5.59-.62 11.3.12 16.9-.6l.27.32c-4.99.6-10.01.02-15 .33-1.67-.13-2.74 1.24-3.84 2.24l-24.87 24.95c-9.52 9.29-18.59 19.08-28.42 28.06 2.34-3.43 5.65-6.01 8.47-9.02l46.49-46.28z" fill="#b0444a"/><path d="M422.24 671.49l.47.04-.47-.04z" fill="#d5b743"/><defs /></svg>